<?xml version="1.0" encoding="UTF-8" standalone="no"?>
<!-- Created with Inkscape (http://www.inkscape.org/) -->

<svg
   xmlns:dc="http://purl.org/dc/elements/1.1/"
   xmlns:cc="http://creativecommons.org/ns#"
   xmlns:rdf="http://www.w3.org/1999/02/22-rdf-syntax-ns#"
   xmlns:svg="http://www.w3.org/2000/svg"
   xmlns="http://www.w3.org/2000/svg"
   xmlns:sodipodi="http://sodipodi.sourceforge.net/DTD/sodipodi-0.dtd"
   xmlns:inkscape="http://www.inkscape.org/namespaces/inkscape"
   width="2160"
   height="1080"
   id="svg2"
   version="1.1"
   inkscape:version="0.48.4 r9939"
   sodipodi:docname="New document 1">
  <defs
     id="defs4" />
  <sodipodi:namedview
     id="base"
     pagecolor="#ffffff"
     bordercolor="#666666"
     borderopacity="1.0"
     inkscape:pageopacity="0.0"
     inkscape:pageshadow="2"
     inkscape:zoom="1.979899"
     inkscape:cx="136.71229"
     inkscape:cy="955.42392"
     inkscape:document-units="px"
     inkscape:current-layer="layer1"
     showgrid="true"
     units="in"
     inkscape:snap-object-midpoints="true"
     inkscape:snap-to-guides="false"
     inkscape:window-width="1366"
     inkscape:window-height="715"
     inkscape:window-x="-8"
     inkscape:window-y="22"
     inkscape:window-maximized="1">
    <inkscape:grid
       type="xygrid"
       id="grid2989"
       empspacing="20"
       visible="true"
       enabled="true"
       snapvisiblegridlinesonly="true"
       units="in"
       spacingx="0.1in"
       spacingy="0.1in"
       color="#000000"
       opacity="0.11764706"
       empcolor="#0000ff"
       empopacity="0.27843137" />
  </sodipodi:namedview>
  <metadata
     id="metadata7">
    <rdf:RDF>
      <cc:Work
         rdf:about="">
        <dc:format>image/svg+xml</dc:format>
        <dc:type
           rdf:resource="http://purl.org/dc/dcmitype/StillImage" />
        <dc:title></dc:title>
      </cc:Work>
    </rdf:RDF>
  </metadata>
  <g
     inkscape:label="Layer 1"
     inkscape:groupmode="layer"
     id="layer1"
     transform="translate(0,27.64025)">
    <path
       sodipodi:type="arc"
       style="fill:none;stroke:#000000;stroke-width:0.90033334;stroke-linecap:butt;stroke-linejoin:bevel;stroke-miterlimit:4;stroke-opacity:1;stroke-dasharray:none"
       id="path2995"
       sodipodi:cx="58.5"
       sodipodi:cy="49.5"
       sodipodi:rx="4.5"
       sodipodi:ry="4.5"
       d="m 63,49.5 a 4.5,4.5 0 1 1 -9,0 4.5,4.5 0 1 1 9,0 z"
       transform="matrix(0.49315068,0,0,0.49315068,34.150685,1.9487913)" />
    <path
       sodipodi:type="arc"
       style="fill:none;stroke:#000000;stroke-width:0.90033334;stroke-linecap:butt;stroke-linejoin:bevel;stroke-miterlimit:4;stroke-opacity:1;stroke-dasharray:none"
       id="path2995-1"
       sodipodi:cx="58.5"
       sodipodi:cy="49.5"
       sodipodi:rx="4.5"
       sodipodi:ry="4.5"
       d="m 63,49.5 a 4.5,4.5 0 1 1 -9,0 4.5,4.5 0 1 1 9,0 z"
       transform="matrix(0.49315068,0,0,0.49315068,43.150685,1.9487913)" />
    <path
       sodipodi:type="arc"
       style="fill:none;stroke:#000000;stroke-width:0.90033334;stroke-linecap:butt;stroke-linejoin:bevel;stroke-miterlimit:4;stroke-opacity:1;stroke-dasharray:none"
       id="path2995-7"
       sodipodi:cx="58.5"
       sodipodi:cy="49.5"
       sodipodi:rx="4.5"
       sodipodi:ry="4.5"
       d="m 63,49.5 a 4.5,4.5 0 1 1 -9,0 4.5,4.5 0 1 1 9,0 z"
       transform="matrix(0.49315068,0,0,0.49315068,52.150685,1.9487913)" />
    <path
       sodipodi:type="arc"
       style="fill:none;stroke:#000000;stroke-width:0.90033334;stroke-linecap:butt;stroke-linejoin:bevel;stroke-miterlimit:4;stroke-opacity:1;stroke-dasharray:none"
       id="path2995-4"
       sodipodi:cx="58.5"
       sodipodi:cy="49.5"
       sodipodi:rx="4.5"
       sodipodi:ry="4.5"
       d="m 63,49.5 a 4.5,4.5 0 1 1 -9,0 4.5,4.5 0 1 1 9,0 z"
       transform="matrix(0.49315068,0,0,0.49315068,61.150685,1.9487913)" />
    <path
       sodipodi:type="arc"
       style="fill:none;stroke:#000000;stroke-width:0.90033334;stroke-linecap:butt;stroke-linejoin:bevel;stroke-miterlimit:4;stroke-opacity:1;stroke-dasharray:none"
       id="path2995-8"
       sodipodi:cx="58.5"
       sodipodi:cy="49.5"
       sodipodi:rx="4.5"
       sodipodi:ry="4.5"
       d="m 63,49.5 a 4.5,4.5 0 1 1 -9,0 4.5,4.5 0 1 1 9,0 z"
       transform="matrix(0.49315068,0,0,0.49315068,34.150685,28.948791)" />
    <path
       sodipodi:type="arc"
       style="fill:none;stroke:#000000;stroke-width:0.90033334;stroke-linecap:butt;stroke-linejoin:bevel;stroke-miterlimit:4;stroke-opacity:1;stroke-dasharray:none"
       id="path2995-2"
       sodipodi:cx="58.5"
       sodipodi:cy="49.5"
       sodipodi:rx="4.5"
       sodipodi:ry="4.5"
       d="m 63,49.5 a 4.5,4.5 0 1 1 -9,0 4.5,4.5 0 1 1 9,0 z"
       transform="matrix(0.49315068,0,0,0.49315068,43.150685,28.948791)" />
    <path
       sodipodi:type="arc"
       style="fill:none;stroke:#000000;stroke-width:0.90033334;stroke-linecap:butt;stroke-linejoin:bevel;stroke-miterlimit:4;stroke-opacity:1;stroke-dasharray:none"
       id="path2995-45"
       sodipodi:cx="58.5"
       sodipodi:cy="49.5"
       sodipodi:rx="4.5"
       sodipodi:ry="4.5"
       d="m 63,49.5 a 4.5,4.5 0 1 1 -9,0 4.5,4.5 0 1 1 9,0 z"
       transform="matrix(0.49315068,0,0,0.49315068,52.150685,28.948791)" />
    <path
       sodipodi:type="arc"
       style="fill:none;stroke:#000000;stroke-width:0.90033334;stroke-linecap:butt;stroke-linejoin:bevel;stroke-miterlimit:4;stroke-opacity:1;stroke-dasharray:none"
       id="path2995-5"
       sodipodi:cx="58.5"
       sodipodi:cy="49.5"
       sodipodi:rx="4.5"
       sodipodi:ry="4.5"
       d="m 63,49.5 a 4.5,4.5 0 1 1 -9,0 4.5,4.5 0 1 1 9,0 z"
       transform="matrix(0.49315068,0,0,0.49315068,61.150685,28.948791)" />
    <path
       sodipodi:type="arc"
       style="fill:none;stroke:#000000;stroke-width:0.90033334;stroke-linecap:butt;stroke-linejoin:bevel;stroke-miterlimit:4;stroke-opacity:1;stroke-dasharray:none"
       id="path2995-17"
       sodipodi:cx="58.5"
       sodipodi:cy="49.5"
       sodipodi:rx="4.5"
       sodipodi:ry="4.5"
       d="m 63,49.5 a 4.5,4.5 0 1 1 -9,0 4.5,4.5 0 1 1 9,0 z"
       transform="matrix(0.49315068,0,0,0.49315068,43.150685,-25.051209)" />
    <path
       sodipodi:type="arc"
       style="fill:none;stroke:#000000;stroke-width:0.90033334;stroke-linecap:butt;stroke-linejoin:bevel;stroke-miterlimit:4;stroke-opacity:1;stroke-dasharray:none"
       id="path2995-11"
       sodipodi:cx="58.5"
       sodipodi:cy="49.5"
       sodipodi:rx="4.5"
       sodipodi:ry="4.5"
       d="m 63,49.5 a 4.5,4.5 0 1 1 -9,0 4.5,4.5 0 1 1 9,0 z"
       transform="matrix(0.49315068,0,0,0.49315068,52.150685,-25.051209)" />
    <path
       sodipodi:type="arc"
       style="fill:none;stroke:#000000;stroke-width:0.90033334;stroke-linecap:butt;stroke-linejoin:bevel;stroke-miterlimit:4;stroke-opacity:1;stroke-dasharray:none"
       id="path2995-52"
       sodipodi:cx="58.5"
       sodipodi:cy="49.5"
       sodipodi:rx="4.5"
       sodipodi:ry="4.5"
       d="m 63,49.5 a 4.5,4.5 0 1 1 -9,0 4.5,4.5 0 1 1 9,0 z"
       transform="matrix(0.49315068,0,0,0.49315068,61.150685,37.948791)" />
    <path
       sodipodi:type="arc"
       style="fill:none;stroke:#000000;stroke-width:0.90033334;stroke-linecap:butt;stroke-linejoin:bevel;stroke-miterlimit:4;stroke-opacity:1;stroke-dasharray:none"
       id="path2995-76"
       sodipodi:cx="58.5"
       sodipodi:cy="49.5"
       sodipodi:rx="4.5"
       sodipodi:ry="4.5"
       d="m 63,49.5 a 4.5,4.5 0 1 1 -9,0 4.5,4.5 0 1 1 9,0 z"
       transform="matrix(0.49315068,0,0,0.49315068,52.150685,37.948791)" />
    <path
       sodipodi:type="arc"
       style="fill:none;stroke:#000000;stroke-width:0.90033334;stroke-linecap:butt;stroke-linejoin:bevel;stroke-miterlimit:4;stroke-opacity:1;stroke-dasharray:none"
       id="path2995-14"
       sodipodi:cx="58.5"
       sodipodi:cy="49.5"
       sodipodi:rx="4.5"
       sodipodi:ry="4.5"
       d="m 63,49.5 a 4.5,4.5 0 1 1 -9,0 4.5,4.5 0 1 1 9,0 z"
       transform="matrix(0.49315068,0,0,0.49315068,25.150685,1.9487913)" />
    <path
       sodipodi:type="arc"
       style="fill:none;stroke:#000000;stroke-width:0.90033334;stroke-linecap:butt;stroke-linejoin:bevel;stroke-miterlimit:4;stroke-opacity:1;stroke-dasharray:none"
       id="path2995-76-2"
       sodipodi:cx="58.5"
       sodipodi:cy="49.5"
       sodipodi:rx="4.5"
       sodipodi:ry="4.5"
       d="m 63,49.5 a 4.5,4.5 0 1 1 -9,0 4.5,4.5 0 1 1 9,0 z"
       transform="matrix(0.49315068,0,0,0.49315068,52.150685,82.948791)" />
    <path
       sodipodi:type="arc"
       style="fill:none;stroke:#000000;stroke-width:0.90033334;stroke-linecap:butt;stroke-linejoin:bevel;stroke-miterlimit:4;stroke-opacity:1;stroke-dasharray:none"
       id="path2995-76-3"
       sodipodi:cx="58.5"
       sodipodi:cy="49.5"
       sodipodi:rx="4.5"
       sodipodi:ry="4.5"
       d="m 63,49.5 a 4.5,4.5 0 1 1 -9,0 4.5,4.5 0 1 1 9,0 z"
       transform="matrix(0.49315068,0,0,0.49315068,97.150685,82.948791)" />
    <path
       sodipodi:type="arc"
       style="fill:none;stroke:#000000;stroke-width:0.90033334;stroke-linecap:butt;stroke-linejoin:bevel;stroke-miterlimit:4;stroke-opacity:1;stroke-dasharray:none"
       id="path2995-76-22"
       sodipodi:cx="58.5"
       sodipodi:cy="49.5"
       sodipodi:rx="4.5"
       sodipodi:ry="4.5"
       d="m 63,49.5 a 4.5,4.5 0 1 1 -9,0 4.5,4.5 0 1 1 9,0 z"
       transform="matrix(0.49315068,0,0,0.49315068,7.1506857,82.948791)" />
    <path
       style="fill:#000000;fill-opacity:1;stroke:none"
       id="path3"
       d="m 171.7135,19.92652 c -0.89627,-0.5173 -1.9125,-0.626811 -2.84263,-0.398782 l 0.004,-0.0065 c 0,0 -1.21651,0.464345 -1.41897,-1.531003 0.0627,-2.505442 -1.21291,-4.9745 -3.54184,-6.316739 -1.77884,-1.027754 -3.8149,-1.194903 -5.63481,-0.636538 0,0 -0.006,0.0036 -0.0159,0.0076 -0.0198,0.0058 -0.0411,0.01189 -0.0609,0.01549 -0.38149,0.104469 -2.07568,0.389416 -2.3862,-2.68268 l -0.004,0.0076 c 0,-0.0094 0,-0.01765 0,-0.02342 0,-0.0097 0,-0.01981 0,-0.02738 l 0.002,0.0058 c 0.30656,-3.026343 1.95788,-2.794711 2.36999,-2.688441 1.84369,0.59511 3.92117,0.438407 5.72919,-0.603755 2.33722,-1.348004 3.61281,-3.826428 3.54185,-6.3459181 0.17507,-1.6469991 1.04972,-1.5958456 1.33035,-1.5331645 0.0198,0.00612 0.0393,0.00973 0.0591,0.01585 0.0177,0.00757 0.0274,0.011888 0.0274,0.011888 l -0.002,-0.00396 c 0.93013,0.2301909 1.94599,0.1199586 2.84262,-0.3987813 1.83576,-1.0572927 2.46474,-3.4099943 1.40492,-5.2435953 -1.06162,-1.8357618 -3.41035,-2.4665348 -5.24576,-1.4074422 -0.89626,0.5151375 -1.4993,1.3425997 -1.76443,2.2640831 l -0.004,-0.00756 c 0,0 -0.20606,1.2831607 -2.0339,0.463984 -2.14232,-1.306936 -4.91578,-1.436621 -7.24254,-0.090419 -1.77885,1.0237908 -2.94241,2.7042919 -3.36677,4.5598678 0,0 -0.002,0.00756 -0.002,0.011888 -0.006,0.025577 -0.0119,0.04503 -0.0177,0.068805 -0.10194,0.3890549 -0.70786,1.9870616 -3.51626,0.723354 l 0.004,0.00756 c -0.0155,-0.00973 -0.0295,-0.019453 -0.045,-0.023415 h 0.006 c -2.47014,-1.7846093 -1.43842,-3.101272 -1.13979,-3.4020691 1.43662,-1.29721 2.33865,-3.1762008 2.33865,-5.2612454 0,-2.696727 -1.50542,-5.041503 -3.72051,-6.236406 -1.37322,-0.998214 -0.83719,-1.741021 -0.65419,-1.934107 0.006,-0.0058 0.0119,-0.01189 0.0177,-0.02161 0.022,-0.01765 0.0357,-0.02774 0.0357,-0.02774 h -0.004 c 0.66427,-0.689852 1.0771,-1.625385 1.0771,-2.663225 0,-2.118548 -1.71976,-3.838315 -3.84047,-3.838315 -2.12107,0 -3.84048,1.719767 -3.84048,3.838315 0,1.037479 0.41283,1.973373 1.07711,2.663225 h -0.008 c 0,0 1.0101,0.823499 -0.61565,1.992825 -2.205,1.202828 -3.7025,3.539679 -3.7025,6.22668 0,2.0519027 0.87465,3.8991927 2.26804,5.1964027 0,0 0.006,0.00396 0.014,0.013689 0.0155,0.00973 0.031,0.027378 0.0472,0.043228 0.27847,0.2788226 1.37322,1.6037708 -1.13222,3.4099943 h 0.008 c -0.0159,0.00396 -0.0295,0.013689 -0.0432,0.023415 l 0.002,-0.00757 c -2.7749,1.2500187 -3.39991,-0.2968344 -3.5123,-0.7096649 -0.40454,-1.8926802 -1.57999,-3.6102856 -3.38802,-4.6582122 -2.33469,-1.3501643 -5.11787,-1.2125541 -7.262,0.1041082 -1.5292,0.6801256 -1.91429,-0.1217598 -1.99894,-0.3890549 -0.002,-0.013689 -0.008,-0.027378 -0.0119,-0.039266 -0.006,-0.027738 -0.008,-0.041427 -0.008,-0.041427 l -0.002,0.00396 c -0.26334,-0.9218436 -0.86853,-1.7489456 -1.763,-2.2640831 -1.83792,-1.0590921 -4.18631,-0.4283191 -5.24577,1.4034796 -1.06125,1.8379239 -0.43048,4.1902652 1.40528,5.2475579 0.89627,0.5187399 1.91035,0.6289722 2.84011,0.3987813 l -0.002,0.00396 c 0,0 1.21652,-0.463984 1.41717,1.532804 -0.0609,2.5079631 1.21472,4.9763011 3.54184,6.3185401 1.77885,1.026312 3.81706,1.193101 5.63482,0.635456 0,0 0.007,-0.0043 0.018,-0.0079 0.0198,-0.0061 0.0389,-0.01369 0.0587,-0.01585 0.38149,-0.104108 2.07784,-0.393018 2.388,2.682678 l 0.002,-0.0076 c 0,0.0076 0,0.01765 0,0.02738 0,0.0061 0,0.01405 0,0.02341 l -0.002,-0.0076 c -0.30476,3.030668 -1.95932,2.796875 -2.36999,2.690965 -1.84153,-0.597992 -3.91937,-0.440569 -5.7292,0.601234 -2.33469,1.350165 -3.61028,3.828229 -3.53968,6.344117 -0.17687,1.664651 -1.06557,1.598007 -1.33863,1.533165 -0.0137,0 -0.0274,-0.0043 -0.0411,-0.0065 -0.0234,-0.0097 -0.0375,-0.01333 -0.0375,-0.01333 -0.3026,-0.07457 -0.61529,-0.112394 -0.92977,-0.112394 -0.64844,0 -1.30695,0.163187 -1.91034,0.511536 -1.83577,1.057653 -2.46654,3.408194 -1.40528,5.247199 1.05945,1.835762 3.40784,2.461132 5.24576,1.403479 0.89411,-0.517299 1.49967,-1.3426 1.763,-2.264083 l 0.004,0.0058 c 0,0 0.20821,-1.281359 2.03605,-0.463623 2.14196,1.31306 4.91542,1.442385 7.24219,0.09654 1.77884,-1.028114 2.94204,-2.710056 3.36712,-4.565633 0,0 0.002,-0.0022 0.004,-0.01621 0.004,-0.01981 0.01,-0.04071 0.014,-0.06052 0.0998,-0.377888 0.70138,-1.993186 3.51807,-0.727677 l -0.004,-0.0058 c 0.0137,0.01333 0.0274,0.01765 0.0411,0.02738 h -0.004 c 2.46869,1.776686 1.44274,3.093709 1.14374,3.396307 -1.43842,1.298651 -2.34261,3.17404 -2.34261,5.261247 0,2.698168 1.50759,5.043305 3.72232,6.24217 1.34656,0.976596 0.8552,1.711838 0.66283,1.922216 -0.0119,0.01333 -0.0259,0.02522 -0.0375,0.03927 -0.01,0.009 -0.0177,0.01549 -0.0216,0.02125 -0.66427,0.690212 -1.07494,1.625385 -1.07494,2.659622 0,2.12071 1.7176,3.837955 3.83831,3.837955 2.12071,0 3.84048,-1.717605 3.84048,-3.837955 0,-1.035678 -0.41283,-1.96941 -1.07711,-2.659622 h 0.008 c 0,0 -1.01046,-0.82314 0.61529,-1.996785 2.20536,-1.198866 3.7025,-3.539679 3.7025,-6.228121 0,-2.050103 -0.87465,-3.899195 -2.26984,-5.194604 -0.002,-0.0022 -0.006,-0.0065 -0.0119,-0.01189 -0.0155,-0.01189 -0.0295,-0.02954 -0.045,-0.04287 -0.28099,-0.277382 -1.37575,-1.604131 1.13006,-3.408195 h -0.006 c 0.0133,-0.0097 0.0274,-0.01765 0.0407,-0.02738 l -0.002,0.0058 c 2.77309,-1.248218 3.3999,0.298996 3.5141,0.711466 0.40526,1.891241 1.57819,3.612809 3.38622,4.658574 2.33505,1.350165 5.11787,1.214356 7.26452,-0.104108 1.51911,-0.676163 1.91033,0.113834 1.99462,0.384732 0.006,0.01765 0.0119,0.03746 0.0162,0.05692 0.006,0.01765 0.006,0.02738 0.006,0.02738 l 0.002,-0.0036 c 0.26514,0.923645 0.86817,1.747144 1.76444,2.264083 1.83576,1.057653 4.18414,0.431923 5.24576,-1.403479 1.05909,-1.839005 0.43012,-4.189546 -1.40564,-5.247199 z M 158.45033,-4.4189543 c 1.83576,-1.057653 4.1845,-0.4283207 5.24575,1.4070819 1.05946,1.8379239 0.43049,4.1863024 -1.40492,5.2439554 -1.83792,1.063417 -4.1845,0.430482 -5.24575,-1.4034794 -1.06126,-1.837564 -0.43085,-4.1863026 1.40492,-5.2475579 z m -27.4961,5.2475579 c -1.06125,1.8336014 -3.40999,2.4665364 -5.24576,1.4034794 -1.83792,-1.057653 -2.46689,-3.4060315 -1.40528,-5.2439554 1.0591,-1.8357628 3.40784,-2.4647349 5.24576,-1.4070819 1.83576,1.0612553 2.46474,3.4099939 1.40528,5.2475579 z m -1.40528,20.3101114 c -1.83792,1.057653 -4.1863,0.42832 -5.24576,-1.407083 -1.06125,-1.839005 -0.43228,-4.186303 1.40528,-5.245397 1.83577,-1.061616 4.18415,-0.430482 5.24576,1.403119 1.05946,1.840086 0.43048,4.186304 -1.40528,5.249361 z M 143.99874,-14.382 c 2.12071,0 3.84047,1.717965 3.84047,3.838675 0,2.1225089 -1.71976,3.8404742 -3.84047,3.8404742 -2.12107,0 -3.84048,-1.7179653 -3.84048,-3.8404742 0,-2.12071 1.71977,-3.838675 3.84048,-3.838675 z m 0,45.483763 c -2.12107,0 -3.83832,-1.717606 -3.83832,-3.840116 0,-2.117108 1.71761,-3.836514 3.83832,-3.838676 2.12071,0 3.84047,1.721568 3.84047,3.838676 0,2.12251 -1.71976,3.840116 -3.84047,3.840116 z m 0,-15.650816 c -3.91505,0 -7.08945,-3.178002 -7.08945,-7.089088 0,-3.915045 3.1744,-7.091246 7.08945,-7.091246 3.91504,0 7.08908,3.175841 7.08908,7.091246 0,3.911086 -3.17404,7.089088 -7.08908,7.089088 z m 19.69734,4.280685 c -1.06089,1.835764 -3.40819,2.464736 -5.24575,1.407083 -1.83613,-1.063057 -2.46654,-3.409635 -1.40528,-5.249361 1.05945,-1.833601 3.40819,-2.464735 5.24575,-1.403119 1.83577,1.059094 2.46474,3.409634 1.40528,5.245397 z"
       inkscape:connector-curvature="0" />
    <text
       xml:space="preserve"
       style="font-size:14px;font-style:normal;font-variant:normal;font-weight:bold;font-stretch:normal;line-height:125%;letter-spacing:0px;word-spacing:0px;fill:#000000;fill-opacity:1;stroke:none;font-family:Segoe UI;-inkscape-font-specification:Segoe UI Bold"
       x="0"
       y="152.35976"
       id="text3960"
       sodipodi:linespacing="125%"><tspan
         sodipodi:role="line"
         id="tspan3962"
         x="0"
         y="152.35976">www.inventables.com</tspan></text>
    <path
       sodipodi:type="arc"
       style="fill:none;stroke:#000000;stroke-width:0.90033334;stroke-linecap:butt;stroke-linejoin:bevel;stroke-miterlimit:4;stroke-opacity:1;stroke-dasharray:none"
       id="path2995-76-1"
       sodipodi:cx="58.5"
       sodipodi:cy="49.5"
       sodipodi:rx="4.5"
       sodipodi:ry="4.5"
       d="m 63,49.5 a 4.5,4.5 0 1 1 -9,0 4.5,4.5 0 1 1 9,0 z"
       transform="matrix(0.49315068,0,0,0.49315068,43.150685,37.948789)" />
    <text
       xml:space="preserve"
       style="font-size:14px;font-style:normal;font-variant:normal;font-weight:bold;font-stretch:normal;line-height:125%;letter-spacing:0px;word-spacing:0px;fill:#000000;fill-opacity:1;stroke:none;font-family:Segoe UI;-inkscape-font-specification:Segoe UI Bold"
       x="0"
       y="134.35976"
       id="text3982"
       sodipodi:linespacing="125%"><tspan
         sodipodi:role="line"
         id="tspan3984"
         x="0"
         y="134.35976">Pumping Station: One</tspan></text>
  </g>
</svg>
