<?xml version="1.0" encoding="UTF-8" standalone="no"?>
<!-- Created with Inkscape (http://www.inkscape.org/) -->

<svg
   xmlns:dc="http://purl.org/dc/elements/1.1/"
   xmlns:cc="http://creativecommons.org/ns#"
   xmlns:rdf="http://www.w3.org/1999/02/22-rdf-syntax-ns#"
   xmlns:svg="http://www.w3.org/2000/svg"
   xmlns="http://www.w3.org/2000/svg"
   xmlns:sodipodi="http://sodipodi.sourceforge.net/DTD/sodipodi-0.dtd"
   xmlns:inkscape="http://www.inkscape.org/namespaces/inkscape"
   width="744.09448819"
   height="1052.3622047"
   id="svg2"
   version="1.1"
   inkscape:version="0.48.4 r9939"
   sodipodi:docname="New document 1">
  <defs
     id="defs4">
    <filter
       id="filter3231"
       inkscape:label="Invert"
       x="0"
       y="0"
       width="1"
       height="1"
       inkscape:menu="Color"
       inkscape:menu-tooltip="Invert colors"
       color-interpolation-filters="sRGB">
      <feColorMatrix
         id="feColorMatrix3233"
         type="saturate"
         values="1"
         result="fbSourceGraphic" />
      <feColorMatrix
         id="feColorMatrix3235"
         in="fbSourceGraphic"
         values="-1 0 0 0 1 0 -1 0 0 1 0 0 -1 0 1 0 0 0 1 0 " />
    </filter>
  </defs>
  <sodipodi:namedview
     id="base"
     pagecolor="#ffffff"
     bordercolor="#666666"
     borderopacity="1.0"
     inkscape:pageopacity="0.0"
     inkscape:pageshadow="2"
     inkscape:zoom="1.979899"
     inkscape:cx="389.56357"
     inkscape:cy="478.72862"
     inkscape:document-units="px"
     inkscape:current-layer="layer1"
     showgrid="false"
     inkscape:window-width="1366"
     inkscape:window-height="715"
     inkscape:window-x="-8"
     inkscape:window-y="22"
     inkscape:window-maximized="1" />
  <metadata
     id="metadata7">
    <rdf:RDF>
      <cc:Work
         rdf:about="">
        <dc:format>image/svg+xml</dc:format>
        <dc:type
           rdf:resource="http://purl.org/dc/dcmitype/StillImage" />
        <dc:title></dc:title>
      </cc:Work>
    </rdf:RDF>
  </metadata>
  <g
     inkscape:label="Layer 1"
     inkscape:groupmode="layer"
     id="layer1">
    <path
       sodipodi:type="arc"
       style="fill:none;stroke:#000000;stroke-width:0.1825;stroke-linecap:butt;stroke-linejoin:bevel;stroke-miterlimit:4;stroke-opacity:1;stroke-dasharray:none"
       id="path2995"
       sodipodi:cx="58.5"
       sodipodi:cy="49.5"
       sodipodi:rx="4.5"
       sodipodi:ry="4.5"
       d="m 63,49.5 a 4.5,4.5 0 1 1 -9,0 4.5,4.5 0 1 1 9,0 z"
       transform="matrix(0.49315068,0,0,0.49315068,303.15068,471.95122)" />
    <path
       sodipodi:type="arc"
       style="fill:none;stroke:#000000;stroke-width:0.1825;stroke-linecap:butt;stroke-linejoin:bevel;stroke-miterlimit:4;stroke-opacity:1;stroke-dasharray:none"
       id="path2995-1"
       sodipodi:cx="58.5"
       sodipodi:cy="49.5"
       sodipodi:rx="4.5"
       sodipodi:ry="4.5"
       d="m 63,49.5 a 4.5,4.5 0 1 1 -9,0 4.5,4.5 0 1 1 9,0 z"
       transform="matrix(0.49315068,0,0,0.49315068,312.15068,471.95122)" />
    <path
       sodipodi:type="arc"
       style="fill:none;stroke:#000000;stroke-width:0.1825;stroke-linecap:butt;stroke-linejoin:bevel;stroke-miterlimit:4;stroke-opacity:1;stroke-dasharray:none"
       id="path2995-7"
       sodipodi:cx="58.5"
       sodipodi:cy="49.5"
       sodipodi:rx="4.5"
       sodipodi:ry="4.5"
       d="m 63,49.5 a 4.5,4.5 0 1 1 -9,0 4.5,4.5 0 1 1 9,0 z"
       transform="matrix(0.49315068,0,0,0.49315068,321.15068,471.95122)" />
    <path
       sodipodi:type="arc"
       style="fill:none;stroke:#000000;stroke-width:0.1825;stroke-linecap:butt;stroke-linejoin:bevel;stroke-miterlimit:4;stroke-opacity:1;stroke-dasharray:none"
       id="path2995-4"
       sodipodi:cx="58.5"
       sodipodi:cy="49.5"
       sodipodi:rx="4.5"
       sodipodi:ry="4.5"
       d="m 63,49.5 a 4.5,4.5 0 1 1 -9,0 4.5,4.5 0 1 1 9,0 z"
       transform="matrix(0.49315068,0,0,0.49315068,330.15068,471.95122)" />
    <path
       sodipodi:type="arc"
       style="fill:none;stroke:#000000;stroke-width:0.1825;stroke-linecap:butt;stroke-linejoin:bevel;stroke-miterlimit:4;stroke-opacity:1;stroke-dasharray:none"
       id="path2995-8"
       sodipodi:cx="58.5"
       sodipodi:cy="49.5"
       sodipodi:rx="4.5"
       sodipodi:ry="4.5"
       d="m 63,49.5 a 4.5,4.5 0 1 1 -9,0 4.5,4.5 0 1 1 9,0 z"
       transform="matrix(0.49315068,0,0,0.49315068,303.15068,498.95122)" />
    <path
       sodipodi:type="arc"
       style="fill:none;stroke:#000000;stroke-width:0;stroke-linecap:butt;stroke-linejoin:bevel;stroke-miterlimit:4;stroke-opacity:1;stroke-dasharray:none"
       id="path2995-2"
       sodipodi:cx="58.5"
       sodipodi:cy="49.5"
       sodipodi:rx="4.5"
       sodipodi:ry="4.5"
       d="m 63,49.5 a 4.5,4.5 0 1 1 -9,0 4.5,4.5 0 1 1 9,0 z"
       transform="matrix(0.49315068,0,0,0.49315068,312.15068,498.95122)" />
    <path
       sodipodi:type="arc"
       style="fill:none;stroke:#000000;stroke-width:0.1825;stroke-linecap:butt;stroke-linejoin:bevel;stroke-miterlimit:4;stroke-opacity:1;stroke-dasharray:none"
       id="path2995-45"
       sodipodi:cx="58.5"
       sodipodi:cy="49.5"
       sodipodi:rx="4.5"
       sodipodi:ry="4.5"
       d="m 63,49.5 a 4.5,4.5 0 1 1 -9,0 4.5,4.5 0 1 1 9,0 z"
       transform="matrix(0.49315068,0,0,0.49315068,321.15068,498.95122)" />
    <path
       sodipodi:type="arc"
       style="fill:none;stroke:#000000;stroke-width:0.1825;stroke-linecap:butt;stroke-linejoin:bevel;stroke-miterlimit:4;stroke-opacity:1;stroke-dasharray:none"
       id="path2995-5"
       sodipodi:cx="58.5"
       sodipodi:cy="49.5"
       sodipodi:rx="4.5"
       sodipodi:ry="4.5"
       d="m 63,49.5 a 4.5,4.5 0 1 1 -9,0 4.5,4.5 0 1 1 9,0 z"
       transform="matrix(0.49315068,0,0,0.49315068,330.15068,498.95122)" />
    <path
       sodipodi:type="arc"
       style="fill:none;stroke:#000000;stroke-width:0.1825;stroke-linecap:butt;stroke-linejoin:bevel;stroke-miterlimit:4;stroke-opacity:1;stroke-dasharray:none"
       id="path2995-17"
       sodipodi:cx="58.5"
       sodipodi:cy="49.5"
       sodipodi:rx="4.5"
       sodipodi:ry="4.5"
       d="m 63,49.5 a 4.5,4.5 0 1 1 -9,0 4.5,4.5 0 1 1 9,0 z"
       transform="matrix(0.49315068,0,0,0.49315068,312.15068,444.95122)" />
    <path
       sodipodi:type="arc"
       style="fill:none;stroke:#000000;stroke-width:0.1825;stroke-linecap:butt;stroke-linejoin:bevel;stroke-miterlimit:4;stroke-opacity:1;stroke-dasharray:none"
       id="path2995-11"
       sodipodi:cx="58.5"
       sodipodi:cy="49.5"
       sodipodi:rx="4.5"
       sodipodi:ry="4.5"
       d="m 63,49.5 a 4.5,4.5 0 1 1 -9,0 4.5,4.5 0 1 1 9,0 z"
       transform="matrix(0.49315068,0,0,0.49315068,321.15068,444.95122)" />
    <path
       sodipodi:type="arc"
       style="fill:none;stroke:#000000;stroke-width:0.1825;stroke-linecap:butt;stroke-linejoin:bevel;stroke-miterlimit:4;stroke-opacity:1;stroke-dasharray:none"
       id="path2995-52"
       sodipodi:cx="58.5"
       sodipodi:cy="49.5"
       sodipodi:rx="4.5"
       sodipodi:ry="4.5"
       d="m 63,49.5 a 4.5,4.5 0 1 1 -9,0 4.5,4.5 0 1 1 9,0 z"
       transform="matrix(0.49315068,0,0,0.49315068,332.15068,513.95122)" />
    <path
       sodipodi:type="arc"
       style="fill:none;stroke:#000000;stroke-width:0.1825;stroke-linecap:butt;stroke-linejoin:bevel;stroke-miterlimit:4;stroke-opacity:1;stroke-dasharray:none"
       id="path2995-76"
       sodipodi:cx="58.5"
       sodipodi:cy="49.5"
       sodipodi:rx="4.5"
       sodipodi:ry="4.5"
       d="m 63,49.5 a 4.5,4.5 0 1 1 -9,0 4.5,4.5 0 1 1 9,0 z"
       transform="matrix(0.49315068,0,0,0.49315068,323.15068,513.95122)" />
    <path
       sodipodi:type="arc"
       style="fill:none;stroke:#000000;stroke-width:0.1825;stroke-linecap:butt;stroke-linejoin:bevel;stroke-miterlimit:4;stroke-opacity:1;stroke-dasharray:none"
       id="path2995-14"
       sodipodi:cx="58.5"
       sodipodi:cy="49.5"
       sodipodi:rx="4.5"
       sodipodi:ry="4.5"
       d="m 63,49.5 a 4.5,4.5 0 1 1 -9,0 4.5,4.5 0 1 1 9,0 z"
       transform="matrix(0.49315068,0,0,0.49315068,284.15068,471.95122)" />
    <path
       style="fill:#000000;fill-opacity:1;stroke:none"
       id="path3"
       d="m 458.7135,487.92895 c -0.89627,-0.5173 -1.9125,-0.62681 -2.84263,-0.39878 l 0.004,-0.007 c 0,0 -1.21651,0.46434 -1.41897,-1.53101 0.0627,-2.50544 -1.21291,-4.9745 -3.54184,-6.31673 -1.77884,-1.02776 -3.8149,-1.19491 -5.63481,-0.63654 0,0 -0.006,0.004 -0.0159,0.008 -0.0198,0.006 -0.0411,0.0119 -0.0609,0.0155 -0.38149,0.10447 -2.07568,0.38941 -2.3862,-2.68268 l -0.004,0.008 c 0,-0.009 0,-0.0177 0,-0.0234 0,-0.01 0,-0.0198 0,-0.0274 l 0.002,0.006 c 0.30656,-3.02635 1.95788,-2.79471 2.36999,-2.68844 1.84369,0.59511 3.92117,0.4384 5.72919,-0.60376 2.33722,-1.348 3.61281,-3.82643 3.54185,-6.34592 0.17507,-1.647 1.04972,-1.59584 1.33035,-1.53316 0.0198,0.006 0.0393,0.01 0.0591,0.0159 0.0177,0.008 0.0274,0.0119 0.0274,0.0119 l -0.002,-0.004 c 0.93013,0.23019 1.94599,0.11996 2.84262,-0.39878 1.83576,-1.0573 2.46474,-3.41 1.40492,-5.2436 -1.06162,-1.83576 -3.41035,-2.46653 -5.24576,-1.40744 -0.89626,0.51514 -1.4993,1.3426 -1.76443,2.26408 l -0.004,-0.008 c 0,0 -0.20606,1.28316 -2.0339,0.46399 -2.14232,-1.30694 -4.91578,-1.43663 -7.24254,-0.0904 -1.77885,1.02379 -2.94241,2.70429 -3.36677,4.55986 0,0 -0.002,0.008 -0.002,0.0119 -0.006,0.0256 -0.0119,0.045 -0.0177,0.0688 -0.10194,0.38905 -0.70786,1.98706 -3.51626,0.72335 l 0.004,0.008 c -0.0155,-0.01 -0.0295,-0.0195 -0.045,-0.0234 h 0.006 c -2.47014,-1.78461 -1.43842,-3.10128 -1.13979,-3.40207 1.43662,-1.29721 2.33865,-3.1762 2.33865,-5.26125 0,-2.69672 -1.50542,-5.0415 -3.72051,-6.2364 -1.37322,-0.99822 -0.83719,-1.74103 -0.65419,-1.93411 0.006,-0.006 0.0119,-0.0119 0.0177,-0.0216 0.022,-0.0177 0.0357,-0.0277 0.0357,-0.0277 h -0.004 c 0.66427,-0.68985 1.0771,-1.62539 1.0771,-2.66323 0,-2.11854 -1.71976,-3.83831 -3.84047,-3.83831 -2.12107,0 -3.84048,1.71977 -3.84048,3.83831 0,1.03748 0.41283,1.97338 1.07711,2.66323 h -0.008 c 0,0 1.0101,0.8235 -0.61565,1.99282 -2.205,1.20283 -3.7025,3.53968 -3.7025,6.22668 0,2.05191 0.87465,3.8992 2.26804,5.19641 0,0 0.006,0.004 0.014,0.0137 0.0155,0.01 0.031,0.0274 0.0472,0.0432 0.27847,0.27883 1.37322,1.60377 -1.13222,3.41 h 0.008 c -0.0159,0.004 -0.0295,0.0137 -0.0432,0.0234 l 0.002,-0.008 c -2.7749,1.25002 -3.39991,-0.29683 -3.5123,-0.70966 -0.40454,-1.89268 -1.57999,-3.61029 -3.38802,-4.65821 -2.33469,-1.35017 -5.11787,-1.21256 -7.262,0.1041 -1.5292,0.68013 -1.91429,-0.12176 -1.99894,-0.38905 -0.002,-0.0137 -0.008,-0.0274 -0.0119,-0.0393 -0.006,-0.0277 -0.008,-0.0414 -0.008,-0.0414 l -0.002,0.004 c -0.26334,-0.92185 -0.86853,-1.74895 -1.763,-2.26409 -1.83792,-1.05909 -4.18631,-0.42832 -5.24577,1.40348 -1.06125,1.83793 -0.43048,4.19027 1.40528,5.24756 0.89627,0.51874 1.91035,0.62897 2.84011,0.39878 l -0.002,0.004 c 0,0 1.21652,-0.46398 1.41717,1.53281 -0.0609,2.50796 1.21472,4.9763 3.54184,6.31854 1.77885,1.02631 3.81706,1.1931 5.63482,0.63545 0,0 0.007,-0.004 0.018,-0.008 0.0198,-0.006 0.0389,-0.0137 0.0587,-0.0159 0.38149,-0.10411 2.07784,-0.39302 2.388,2.68268 l 0.002,-0.008 c 0,0.008 0,0.0177 0,0.0274 0,0.006 0,0.014 0,0.0234 l -0.002,-0.008 c -0.30476,3.03067 -1.95932,2.79688 -2.36999,2.69097 -1.84153,-0.598 -3.91937,-0.44057 -5.7292,0.60123 -2.33469,1.35016 -3.61028,3.82823 -3.53968,6.34412 -0.17687,1.66465 -1.06557,1.598 -1.33863,1.53316 -0.0137,0 -0.0274,-0.004 -0.0411,-0.006 -0.0234,-0.01 -0.0375,-0.0133 -0.0375,-0.0133 -0.3026,-0.0746 -0.61529,-0.11239 -0.92977,-0.11239 -0.64844,0 -1.30695,0.16318 -1.91034,0.51153 -1.83577,1.05766 -2.46654,3.4082 -1.40528,5.2472 1.05945,1.83576 3.40784,2.46113 5.24576,1.40348 0.89411,-0.5173 1.49967,-1.3426 1.763,-2.26408 l 0.004,0.006 c 0,0 0.20821,-1.28136 2.03605,-0.46363 2.14196,1.31306 4.91542,1.44239 7.24219,0.0965 1.77884,-1.02811 2.94204,-2.71005 3.36712,-4.56563 0,0 0.002,-0.002 0.004,-0.0162 0.004,-0.0198 0.01,-0.0407 0.014,-0.0605 0.0998,-0.37789 0.70138,-1.99318 3.51807,-0.72767 l -0.004,-0.006 c 0.0137,0.0133 0.0274,0.0177 0.0411,0.0274 h -0.004 c 2.46869,1.77669 1.44274,3.09371 1.14374,3.39631 -1.43842,1.29865 -2.34261,3.17404 -2.34261,5.26125 0,2.69817 1.50759,5.0433 3.72232,6.24217 1.34656,0.9766 0.8552,1.71184 0.66283,1.92222 -0.0119,0.0133 -0.0259,0.0252 -0.0375,0.0393 -0.01,0.009 -0.0177,0.0155 -0.0216,0.0212 -0.66427,0.69021 -1.07494,1.62538 -1.07494,2.65962 0,2.12071 1.7176,3.83795 3.83831,3.83795 2.12071,0 3.84048,-1.7176 3.84048,-3.83795 0,-1.03568 -0.41283,-1.96941 -1.07711,-2.65962 h 0.008 c 0,0 -1.01046,-0.82314 0.61529,-1.99679 2.20536,-1.19887 3.7025,-3.53968 3.7025,-6.22812 0,-2.0501 -0.87465,-3.8992 -2.26984,-5.1946 -0.002,-0.002 -0.006,-0.006 -0.0119,-0.0119 -0.0155,-0.0119 -0.0295,-0.0295 -0.045,-0.0429 -0.28099,-0.27738 -1.37575,-1.60413 1.13006,-3.40819 h -0.006 c 0.0133,-0.01 0.0274,-0.0177 0.0407,-0.0274 l -0.002,0.006 c 2.77309,-1.24822 3.3999,0.299 3.5141,0.71147 0.40526,1.89124 1.57819,3.6128 3.38622,4.65857 2.33505,1.35016 5.11787,1.21436 7.26452,-0.10411 1.51911,-0.67616 1.91033,0.11384 1.99462,0.38473 0.006,0.0177 0.0119,0.0375 0.0162,0.0569 0.006,0.0177 0.006,0.0274 0.006,0.0274 l 0.002,-0.004 c 0.26514,0.92365 0.86817,1.74715 1.76444,2.26409 1.83576,1.05765 4.18414,0.43192 5.24576,-1.40348 1.05909,-1.83901 0.43012,-4.18955 -1.40564,-5.2472 z m -13.26317,-24.34547 c 1.83576,-1.05766 4.1845,-0.42833 5.24575,1.40708 1.05946,1.83792 0.43049,4.1863 -1.40492,5.24395 -1.83792,1.06342 -4.1845,0.43048 -5.24575,-1.40348 -1.06126,-1.83756 -0.43085,-4.1863 1.40492,-5.24755 z m -27.4961,5.24755 c -1.06125,1.8336 -3.40999,2.46654 -5.24576,1.40348 -1.83792,-1.05765 -2.46689,-3.40603 -1.40528,-5.24395 1.0591,-1.83577 3.40784,-2.46474 5.24576,-1.40708 1.83576,1.06125 2.46474,3.40999 1.40528,5.24755 z m -1.40528,20.31011 c -1.83792,1.05766 -4.1863,0.42832 -5.24576,-1.40708 -1.06125,-1.839 -0.43228,-4.1863 1.40528,-5.24539 1.83577,-1.06162 4.18415,-0.43049 5.24576,1.40311 1.05946,1.84009 0.43048,4.18631 -1.40528,5.24936 z m 14.44979,-35.52071 c 2.12071,0 3.84047,1.71796 3.84047,3.83868 0,2.1225 -1.71976,3.84047 -3.84047,3.84047 -2.12107,0 -3.84048,-1.71797 -3.84048,-3.84047 0,-2.12072 1.71977,-3.83868 3.84048,-3.83868 z m 0,45.48376 c -2.12107,0 -3.83832,-1.7176 -3.83832,-3.84011 0,-2.11711 1.71761,-3.83652 3.83832,-3.83868 2.12071,0 3.84047,1.72157 3.84047,3.83868 0,2.12251 -1.71976,3.84011 -3.84047,3.84011 z m 0,-15.65081 c -3.91505,0 -7.08945,-3.17801 -7.08945,-7.08909 0,-3.91505 3.1744,-7.09125 7.08945,-7.09125 3.91504,0 7.08908,3.17584 7.08908,7.09125 0,3.91108 -3.17404,7.08909 -7.08908,7.08909 z m 19.69734,4.28068 c -1.06089,1.83577 -3.40819,2.46474 -5.24575,1.40708 -1.83613,-1.06305 -2.46654,-3.40963 -1.40528,-5.24936 1.05945,-1.8336 3.40819,-2.46473 5.24575,-1.40311 1.83577,1.05909 2.46474,3.40963 1.40528,5.24539 z"
       inkscape:connector-curvature="0" />
    <path
       sodipodi:type="arc"
       style="fill:none;stroke:#000000;stroke-width:0.1825;stroke-linecap:butt;stroke-linejoin:bevel;stroke-miterlimit:4;stroke-opacity:1;stroke-dasharray:none"
       id="path2995-76-1"
       sodipodi:cx="58.5"
       sodipodi:cy="49.5"
       sodipodi:rx="4.5"
       sodipodi:ry="4.5"
       d="m 63,49.5 a 4.5,4.5 0 1 1 -9,0 4.5,4.5 0 1 1 9,0 z"
       transform="matrix(0.49315068,0,0,0.49315068,302.15068,507.95122)" />
    <text
       xml:space="preserve"
       style="font-size:9.31261539px;font-style:normal;font-variant:normal;font-weight:bold;font-stretch:normal;line-height:125%;letter-spacing:0px;word-spacing:0px;fill:#000000;fill-opacity:1;stroke:none;font-family:Segoe UI;-inkscape-font-specification:Segoe UI Bold"
       x="444.76816"
       y="-286.91919"
       id="text3960"
       sodipodi:linespacing="125%"
       transform="matrix(0,1,-1,0,0,0)"><tspan
         sodipodi:role="line"
         id="tspan3962"
         x="444.76816"
         y="-286.91919">inventables.com</tspan></text>
    <text
       xml:space="preserve"
       style="font-size:8.01442719px;font-style:normal;font-variant:normal;font-weight:bold;font-stretch:normal;line-height:125%;letter-spacing:0px;word-spacing:0px;fill:#000000;fill-opacity:1;stroke:none;font-family:Segoe UI;-inkscape-font-specification:Segoe UI Bold"
       x="444.75244"
       y="-297.15683"
       id="text3982"
       sodipodi:linespacing="125%"
       transform="matrix(0,1,-1,0,0,0)"><tspan
         sodipodi:role="line"
         id="tspan3984"
         x="444.75244"
         y="-297.15683">pumpingstationone.org</tspan></text>
    <text
       sodipodi:linespacing="125%"
       id="text3026"
       y="524.35974"
       x="391.75"
       style="font-size:14px;font-style:normal;font-variant:normal;font-weight:bold;font-stretch:normal;line-height:125%;letter-spacing:0px;word-spacing:0px;fill:#000000;fill-opacity:1;stroke:none;font-family:Segoe UI;-inkscape-font-specification:Segoe UI Bold"
       xml:space="preserve"><tspan
         y="524.35974"
         x="391.75"
         id="tspan3028"
         sodipodi:role="line" /></text>
    <text
       sodipodi:linespacing="125%"
       id="text3030"
       y="506.7915"
       x="369.25549"
       style="font-size:9.47749233px;font-style:normal;font-variant:normal;font-weight:bold;font-stretch:normal;line-height:125%;letter-spacing:0px;word-spacing:0px;fill:#000000;fill-opacity:1;stroke:none;font-family:Segoe UI;-inkscape-font-specification:Segoe UI Bold"
       xml:space="preserve"><tspan
         style="font-weight:normal"
         y="506.7915"
         x="369.25549"
         id="tspan3032"
         sodipodi:role="line">Noise-o-Tron</tspan></text>
    <text
       sodipodi:linespacing="125%"
       id="text3034"
       y="514.4566"
       x="397.19971"
       style="font-size:6px;font-style:normal;font-variant:normal;font-weight:bold;font-stretch:normal;text-align:center;line-height:125%;letter-spacing:0px;word-spacing:0px;text-anchor:middle;fill:#000000;fill-opacity:1;stroke:none;font-family:Segoe UI;-inkscape-font-specification:Segoe UI Bold"
       xml:space="preserve"><tspan
         style="font-size:6px;font-weight:normal;text-align:center;text-anchor:middle"
         y="514.4566"
         x="398.02002"
         id="tspan3036"
         sodipodi:role="line">Microcontroller based </tspan><tspan
         id="tspan3038"
         style="font-size:6px;font-weight:normal;text-align:center;text-anchor:middle"
         y="521.9566"
         x="397.19971"
         sodipodi:role="line">optical theremin</tspan></text>
    <text
       sodipodi:linespacing="125%"
       id="text3040"
       y="617.1355"
       x="386.9642"
       style="font-size:4px;font-style:normal;font-variant:normal;font-weight:bold;font-stretch:normal;line-height:125%;letter-spacing:0px;word-spacing:0px;fill:#000000;fill-opacity:1;stroke:none;font-family:Segoe UI;-inkscape-font-specification:Segoe UI Bold"
       xml:space="preserve"><tspan
         y="617.1355"
         x="386.9642"
         id="tspan3042"
         sodipodi:role="line" /></text>
    <g
       transform="matrix(0.26825941,0,0,0.26825941,381.51172,538.88537)"
       id="g3135"
       style="filter:url(#filter3231)">
      <path
         inkscape:connector-curvature="0"
         style="fill:#ffffff;stroke:none"
         d="M 0,0 0,310 310,310 310,0 0,0 z"
         id="path3097" />
      <path
         inkscape:connector-curvature="0"
         style="fill:#000000;stroke:none"
         d="m 10,10 0,70 70,0 0,-70 -70,0 m 80,0 0,10 10,0 0,10 10,0 0,10 10,0 0,-20 30,0 0,10 -20,0 0,20 -10,0 0,10 -10,0 0,-10 -10,0 0,10 10,0 0,30 -10,0 0,-20 -10,0 0,20 10,0 0,10 -10,0 0,10 20,0 0,10 -10,0 0,10 -10,0 0,10 -10,0 0,-10 -10,0 0,-10 10,0 0,-10 -20,0 0,-20 -20,0 0,10 -10,0 0,-10 -20,0 0,30 20,0 0,10 -10,0 0,10 20,0 0,10 -10,0 0,10 -10,0 0,-10 -10,0 0,20 10,0 0,10 -10,0 0,40 20,0 0,-30 -10,0 0,-10 10,0 0,-10 30,0 0,-10 -20,0 0,-10 10,0 0,-10 -10,0 0,-30 20,0 0,40 10,0 0,10 10,0 0,-10 10,0 0,10 10,0 0,10 -10,0 0,10 -10,0 0,-10 -10,0 0,10 -30,0 0,10 30,0 0,10 -20,0 0,10 -10,0 0,10 20,0 0,-10 10,0 0,10 10,0 0,-10 -10,0 0,-10 20,0 0,10 10,0 0,-40 10,0 0,-10 -10,0 0,-10 10,0 0,-20 10,0 0,10 20,0 0,10 -20,0 0,20 10,0 0,-10 20,0 0,-10 10,0 0,20 -10,0 0,10 -40,0 0,20 20,0 0,20 20,0 0,30 -10,0 0,10 -10,0 0,10 10,0 0,-10 20,0 0,10 -10,0 0,10 -20,0 0,10 -30,0 0,-10 20,0 0,-10 -20,0 0,-20 10,0 0,10 10,0 0,-10 -10,0 0,-10 10,0 0,-20 -10,0 0,10 -10,0 0,-10 -10,0 0,10 10,0 0,20 -10,0 0,20 10,0 0,10 -10,0 0,20 50,0 0,-10 20,0 0,10 20,0 0,-20 10,0 0,-10 10,0 0,-10 20,0 0,10 -10,0 0,10 20,0 0,20 10,0 0,-10 10,0 0,10 10,0 0,-10 20,0 0,-10 10,0 0,10 10,0 0,-40 -10,0 0,20 -20,0 0,10 -10,0 0,-10 -20,0 0,10 -10,0 0,-20 40,0 0,-10 -10,0 0,-10 10,0 0,-20 20,0 0,-10 -10,0 0,-10 -10,0 0,-10 20,0 0,10 10,0 0,-10 -10,0 0,-10 -20,0 0,-10 10,0 0,-20 10,0 0,20 10,0 0,-50 -10,0 0,20 -40,0 0,-20 10,0 0,10 10,0 0,-10 10,0 0,-10 10,0 0,-10 10,0 0,-10 -10,0 0,10 -20,0 0,20 -10,0 0,-20 -20,0 0,-10 -10,0 0,10 -10,0 0,10 -10,0 0,-10 -20,0 0,-10 -10,0 0,-20 -10,0 0,10 -10,0 0,-30 10,0 0,10 20,0 0,20 10,0 0,-20 10,0 0,20 10,0 0,-20 -10,0 0,-10 10,0 0,-10 -10,0 0,-20 -10,0 0,-10 -10,0 0,10 -20,0 0,10 -10,0 0,-10 -10,0 0,-10 -30,0 0,10 -20,0 0,-10 -10,0 m 140,0 0,70 70,0 0,-70 -70,0 z"
         id="path3099" />
      <path
         inkscape:connector-curvature="0"
         style="fill:#ffffff;stroke:none"
         d="m 20,20 0,50 50,0 0,-50 -50,0 m 170,0 0,10 -10,0 0,10 10,0 0,20 10,0 0,-10 10,0 0,-10 -20,0 0,-10 10,0 0,-10 -10,0 m 50,0 0,50 50,0 0,-50 -50,0 z"
         id="path3101" />
      <path
         inkscape:connector-curvature="0"
         style="fill:#000000;stroke:none"
         d="m 30,30 0,30 30,0 0,-30 -30,0 m 220,0 0,30 30,0 0,-30 -30,0 z"
         id="path3103" />
      <path
         inkscape:connector-curvature="0"
         style="fill:#ffffff;stroke:none"
         d="m 150,40 0,10 -20,0 0,10 -10,0 0,20 10,0 0,20 -20,0 0,10 20,0 0,10 10,0 0,-10 -10,0 0,-10 10,0 0,-20 10,0 0,20 20,0 0,30 -10,0 0,-20 -10,0 0,30 20,0 0,-10 10,0 0,10 20,0 0,10 -10,0 0,10 -10,0 0,-10 -10,0 0,20 -10,0 0,20 -30,0 0,10 10,0 0,10 10,0 0,-10 10,0 0,10 10,0 0,10 10,0 0,-10 10,0 0,10 10,0 0,10 10,0 0,-20 20,0 0,-10 10,0 0,10 20,0 0,-10 -10,0 0,-20 10,0 0,10 10,0 0,-10 -10,0 0,-10 10,0 0,-20 -10,0 0,20 -20,0 0,-10 10,0 0,-10 -10,0 0,10 -30,0 0,10 20,0 0,10 -20,0 0,30 -20,0 0,-10 10,0 0,-10 -10,0 0,10 -10,0 0,-20 20,0 0,-10 -10,0 0,-10 10,0 0,-10 30,0 0,-20 -10,0 0,10 -10,0 0,-30 -10,0 0,10 -10,0 0,10 -10,0 0,-30 -10,0 0,-10 -10,0 0,-10 -10,0 0,-30 10,0 0,-10 -10,0 z"
         id="path3105" />
      <path
         inkscape:connector-curvature="0"
         style="fill:#000000;stroke:none"
         d="m 130,60 0,20 10,0 0,-20 -10,0 m -60,30 0,10 10,0 0,-10 -10,0 z"
         id="path3107" />
      <path
         inkscape:connector-curvature="0"
         style="fill:#ffffff;stroke:none"
         d="m 20,100 0,10 10,0 0,-10 -10,0 m 210,0 0,10 -10,0 0,10 20,0 0,-20 -10,0 m -160,40 0,10 10,0 0,-10 -10,0 m 20,0 0,10 10,0 0,-10 -10,0 z"
         id="path3109" />
      <path
         inkscape:connector-curvature="0"
         style="fill:#000000;stroke:none"
         d="m 170,170 0,10 10,0 0,-10 -10,0 z"
         id="path3111" />
      <path
         inkscape:connector-curvature="0"
         style="fill:#ffffff;stroke:none"
         d="m 70,180 0,10 10,0 0,-10 -10,0 z"
         id="path3113" />
      <path
         inkscape:connector-curvature="0"
         style="fill:#000000;stroke:none"
         d="m 160,190 0,10 10,0 0,-10 -10,0 z"
         id="path3115" />
      <path
         inkscape:connector-curvature="0"
         style="fill:#ffffff;stroke:none"
         d="m 220,220 0,30 30,0 0,-30 -30,0 z"
         id="path3117" />
      <path
         inkscape:connector-curvature="0"
         style="fill:#000000;stroke:none"
         d="m 10,230 0,70 70,0 0,-70 -70,0 m 120,0 0,10 10,0 0,-10 -10,0 m 100,0 0,10 10,0 0,-10 -10,0 z"
         id="path3119" />
      <path
         inkscape:connector-curvature="0"
         style="fill:#ffffff;stroke:none"
         d="m 20,240 0,50 50,0 0,-50 -50,0 m 170,0 0,10 -20,0 0,10 20,0 0,-10 10,0 0,-10 -10,0 z"
         id="path3121" />
      <path
         inkscape:connector-curvature="0"
         style="fill:#000000;stroke:none"
         d="m 30,250 0,30 30,0 0,-30 -30,0 z"
         id="path3123" />
      <path
         inkscape:connector-curvature="0"
         style="fill:#ffffff;stroke:none"
         d="m 160,280 0,10 10,0 0,-10 -10,0 m 90,0 0,10 10,0 0,-10 -10,0 z"
         id="path3125" />
      <path
         inkscape:connector-curvature="0"
         style="fill:#000000;stroke:none"
         d="m 200,290 0,10 20,0 0,-10 -20,0 z"
         id="path3127" />
    </g>
    <rect
       style="fill:none;stroke:#000000;stroke-width:0.09;stroke-miterlimit:4;stroke-opacity:1;stroke-dasharray:none"
       id="rect3809"
       width="180"
       height="180"
       x="285"
       y="442.36218" />
    <path
       sodipodi:type="arc"
       style="fill:none;stroke:#000000;stroke-width:0.1825;stroke-linecap:butt;stroke-linejoin:bevel;stroke-miterlimit:4;stroke-opacity:1;stroke-dasharray:none"
       id="path2995-76-1-1"
       sodipodi:cx="58.5"
       sodipodi:cy="49.5"
       sodipodi:rx="4.5"
       sodipodi:ry="4.5"
       d="m 63,49.5 a 4.5,4.5 0 1 1 -9,0 4.5,4.5 0 1 1 9,0 z"
       transform="matrix(0.49315068,0,0,0.49315068,312.15068,498.95122)" />
    <rect
       style="fill:none;stroke:#000000;stroke-opacity:1"
       id="rect3088"
       width="31.440998"
       height="20.329321"
       x="330.06735"
       y="499.68002" />
    <text
       xml:space="preserve"
       style="font-size:22px;font-style:normal;font-variant:normal;font-weight:bold;font-stretch:normal;line-height:125%;letter-spacing:0px;word-spacing:0px;fill:#000000;fill-opacity:1;stroke:none;font-family:Segoe UI;-inkscape-font-specification:Segoe UI Bold"
       x="335.1181"
       y="517.61023"
       id="text3858"
       sodipodi:linespacing="125%"><tspan
         sodipodi:role="line"
         id="tspan3860"
         x="335.1181"
         y="517.61023">IC</tspan></text>
    <g
       id="g3237"
       transform="matrix(0.70710678,0.70710678,-0.70710678,0.70710678,501.77661,-74.492988)">
      <path
         transform="matrix(0.49315068,0,0,0.49315068,309.13283,560.95122)"
         d="M 63,49.5 C 63,51.985281 60.985281,54 58.5,54 56.014719,54 54,51.985281 54,49.5 54,47.014719 56.014719,45 58.5,45 c 2.485281,0 4.5,2.014719 4.5,4.5 z"
         sodipodi:ry="4.5"
         sodipodi:rx="4.5"
         sodipodi:cy="49.5"
         sodipodi:cx="58.5"
         id="path2995-76-2"
         style="fill:none;stroke:#000000;stroke-width:0.1825;stroke-linecap:butt;stroke-linejoin:bevel;stroke-miterlimit:4;stroke-opacity:1;stroke-dasharray:none"
         sodipodi:type="arc" />
      <path
         transform="matrix(0.97260788,0,0,0.97260788,326.10244,537.21809)"
         d="M 63,49.5 C 63,51.985281 60.985281,54 58.5,54 56.014719,54 54,51.985281 54,49.5 54,47.014719 56.014719,45 58.5,45 c 2.485281,0 4.5,2.014719 4.5,4.5 z"
         sodipodi:ry="4.5"
         sodipodi:rx="4.5"
         sodipodi:cy="49.5"
         sodipodi:cx="58.5"
         id="path2995-76-3"
         style="fill:none;stroke:#000000;stroke-width:0.09253472;stroke-linecap:butt;stroke-linejoin:bevel;stroke-miterlimit:4;stroke-opacity:1;stroke-dasharray:none"
         sodipodi:type="arc" />
      <path
         transform="matrix(0.97296736,0,0,0.96720527,236.08141,537.48552)"
         d="M 63,49.5 C 63,51.985281 60.985281,54 58.5,54 56.014719,54 54,51.985281 54,49.5 54,47.014719 56.014719,45 58.5,45 c 2.485281,0 4.5,2.014719 4.5,4.5 z"
         sodipodi:ry="4.5"
         sodipodi:rx="4.5"
         sodipodi:cy="49.5"
         sodipodi:cx="58.5"
         id="path2995-76-22"
         style="fill:none;stroke:#000000;stroke-width:0.09277566;stroke-linecap:butt;stroke-linejoin:bevel;stroke-miterlimit:4;stroke-opacity:1;stroke-dasharray:none"
         sodipodi:type="arc" />
      <path
         transform="matrix(0.49315068,0,0,0.49315068,309.13283,572.68094)"
         d="M 63,49.5 C 63,51.985281 60.985281,54 58.5,54 56.014719,54 54,51.985281 54,49.5 54,47.014719 56.014719,45 58.5,45 c 2.485281,0 4.5,2.014719 4.5,4.5 z"
         sodipodi:ry="4.5"
         sodipodi:rx="4.5"
         sodipodi:cy="49.5"
         sodipodi:cx="58.5"
         id="path2995-76-2-4"
         style="fill:none;stroke:#000000;stroke-width:0.1825;stroke-linecap:butt;stroke-linejoin:bevel;stroke-miterlimit:4;stroke-opacity:1;stroke-dasharray:none"
         sodipodi:type="arc" />
      <text
         sodipodi:linespacing="125%"
         id="text3862"
         y="583.87366"
         x="309.056"
         style="font-size:26.55494881px;font-style:normal;font-variant:normal;font-weight:bold;font-stretch:normal;line-height:125%;letter-spacing:0px;word-spacing:0px;fill:#000000;fill-opacity:1;stroke:none;font-family:Segoe UI;-inkscape-font-specification:Segoe UI Bold"
         xml:space="preserve"><tspan
           style="font-size:19.17857361px;font-weight:normal"
           y="583.87366"
           x="309.056"
           id="tspan3864"
           sodipodi:role="line">Battery</tspan><tspan
           style="font-size:19.17857361px;font-weight:normal"
           id="tspan3866"
           y="607.84686"
           x="309.056"
           sodipodi:role="line">Holder</tspan></text>
    </g>
    <rect
       style="fill:none;stroke:#000000;stroke-width:0.69;stroke-linecap:butt;stroke-linejoin:bevel;stroke-miterlimit:4;stroke-opacity:1;stroke-dasharray:none"
       id="rect3868"
       width="6.7857141"
       height="22.321428"
       x="311.07144"
       y="504.68118" />
    <text
       xml:space="preserve"
       style="font-size:72px;font-style:normal;font-variant:normal;font-weight:bold;font-stretch:normal;line-height:125%;letter-spacing:0px;word-spacing:0px;fill:#000000;fill-opacity:1;stroke:none;font-family:Segoe UI;-inkscape-font-specification:Segoe UI Bold"
       x="504.84824"
       y="-312.48178"
       id="text3870"
       sodipodi:linespacing="125%"
       transform="matrix(0,1,-1,0,0,0)"><tspan
         sodipodi:role="line"
         id="tspan3872"
         x="504.84824"
         y="-312.48178"
         style="font-size:6px;font-weight:normal">Resistor</tspan></text>
    <path
       style="fill:none;stroke:#000000;stroke-width:1px;stroke-linecap:butt;stroke-linejoin:miter;stroke-opacity:1"
       d="m 314.64286,527.71689 0,5 14.10714,0"
       id="path3876"
       inkscape:connector-curvature="0" />
    <path
       style="fill:none;stroke:#000000;stroke-width:1px;stroke-linecap:butt;stroke-linejoin:miter;stroke-opacity:1"
       d="m 314.4168,504.28886 -0.0631,-0.88388 -1.07329,-0.0631 -0.22097,-4.73509"
       id="path3884"
       inkscape:connector-curvature="0" />
    <path
       sodipodi:type="arc"
       style="fill:none;stroke:#000000;stroke-width:0.69;stroke-linecap:butt;stroke-linejoin:bevel;stroke-miterlimit:4;stroke-opacity:1;stroke-dasharray:none"
       id="path3886"
       sodipodi:cx="346.42856"
       sodipodi:cy="471.11218"
       sodipodi:rx="16.428572"
       sodipodi:ry="16.428572"
       d="m 362.85713,471.11218 a 16.428572,16.428572 0 1 1 -32.85714,0 16.428572,16.428572 0 1 1 32.85714,0 z"
       transform="translate(-1.9571068,-1.6095755)" />
    <text
       xml:space="preserve"
       style="font-size:16px;font-style:normal;font-variant:normal;font-weight:bold;font-stretch:normal;line-height:125%;letter-spacing:0px;word-spacing:0px;fill:#000000;fill-opacity:1;stroke:none;font-family:Segoe UI;-inkscape-font-specification:Segoe UI Bold"
       x="329.46429"
       y="452.18118"
       id="text3888"
       sodipodi:linespacing="125%"><tspan
         sodipodi:role="line"
         id="tspan3890"
         x="329.46429"
         y="452.18118"
         style="font-size:11px;font-weight:normal">Buzzer</tspan></text>
    <path
       sodipodi:type="arc"
       style="fill:none;stroke:#000000;stroke-width:0.69;stroke-linecap:butt;stroke-linejoin:bevel;stroke-miterlimit:4;stroke-opacity:1;stroke-dasharray:none"
       id="path3892"
       sodipodi:cx="358.38318"
       sodipodi:cy="509.62616"
       sodipodi:rx="2.8094869"
       sodipodi:ry="2.8094869"
       d="m 361.19267,509.62616 a 2.8094869,2.8094869 0 1 1 -5.61898,0 2.8094869,2.8094869 0 1 1 5.61898,0 z"
       transform="translate(0.44194174,-0.00243262)" />
    <path
       sodipodi:type="arc"
       style="fill:none;stroke:#000000;stroke-width:0.69;stroke-linecap:butt;stroke-linejoin:bevel;stroke-miterlimit:4;stroke-opacity:1;stroke-dasharray:none"
       id="path3894"
       sodipodi:cx="355.32117"
       sodipodi:cy="534.91156"
       sodipodi:rx="8.8388348"
       sodipodi:ry="8.8388348"
       d="m 364.16,534.91156 a 8.8388348,8.8388348 0 1 1 -17.67767,0 8.8388348,8.8388348 0 1 1 17.67767,0 z"
       transform="translate(0.625,5.6225674)" />
    <text
       xml:space="preserve"
       style="font-size:14px;font-style:normal;font-variant:normal;font-weight:bold;font-stretch:normal;line-height:125%;letter-spacing:0px;word-spacing:0px;fill:#000000;fill-opacity:1;stroke:none;font-family:Segoe UI;-inkscape-font-specification:Segoe UI Bold"
       x="332.875"
       y="555.60974"
       id="text3896"
       sodipodi:linespacing="125%"><tspan
         sodipodi:role="line"
         id="tspan3898"
         x="332.875"
         y="555.60974"
         style="font-size:8px;font-weight:normal">Photoresistor</tspan></text>
    <text
       xml:space="preserve"
       style="font-size:4px;font-style:normal;font-variant:normal;font-weight:bold;font-stretch:normal;line-height:125%;letter-spacing:0px;word-spacing:0px;fill:#000000;fill-opacity:1;stroke:none;font-family:Segoe UI;-inkscape-font-specification:Segoe UI Bold"
       x="370.06989"
       y="527.33539"
       id="text3246"
       sodipodi:linespacing="125%"><tspan
         sodipodi:role="line"
         id="tspan3248"
         x="370.06989"
         y="527.33539"
         style="font-weight:normal">https://github.com/loansindi/ps1_noise</tspan></text>
  </g>
</svg>
