<?xml version="1.0" encoding="UTF-8" standalone="no"?>
<!-- Created with Inkscape (http://www.inkscape.org/) -->

<svg
   xmlns:dc="http://purl.org/dc/elements/1.1/"
   xmlns:cc="http://creativecommons.org/ns#"
   xmlns:rdf="http://www.w3.org/1999/02/22-rdf-syntax-ns#"
   xmlns:svg="http://www.w3.org/2000/svg"
   xmlns="http://www.w3.org/2000/svg"
   xmlns:sodipodi="http://sodipodi.sourceforge.net/DTD/sodipodi-0.dtd"
   xmlns:inkscape="http://www.inkscape.org/namespaces/inkscape"
   width="744.09448819"
   height="1052.3622047"
   id="svg2"
   version="1.1"
   inkscape:version="0.91 r13725"
   sodipodi:docname="laser_cut_board_source.svg"
   inkscape:export-filename="C:\Documents and Settings\dbever\Desktop\laserboard430-5.png"
   inkscape:export-xdpi="90"
   inkscape:export-ydpi="90">
  <defs
     id="defs4">
    <filter
       color-interpolation-filters="sRGB"
       inkscape:menu-tooltip="Invert colors"
       inkscape:menu="Color"
       height="1"
       width="1"
       y="0"
       x="0"
       inkscape:label="Invert"
       id="filter3231">
      <feColorMatrix
         result="fbSourceGraphic"
         values="1"
         type="saturate"
         id="feColorMatrix3233" />
      <feColorMatrix
         values="-1 0 0 0 1 0 -1 0 0 1 0 0 -1 0 1 0 0 0 1 0 "
         in="fbSourceGraphic"
         id="feColorMatrix3235" />
    </filter>
    <rect
       height="9"
       width="9"
       id="p" />
    <rect
       height="40"
       width="40"
       id="p-8" />
    <filter
       id="filter9701"
       inkscape:label="Invert"
       x="0"
       y="0"
       width="1"
       height="1"
       inkscape:menu="Color"
       inkscape:menu-tooltip="Invert colors"
       color-interpolation-filters="sRGB">
      <feColorMatrix
         id="feColorMatrix9703"
         type="saturate"
         values="1"
         result="fbSourceGraphic" />
      <feColorMatrix
         id="feColorMatrix9705"
         in="fbSourceGraphic"
         values="-1 0 0 0 1 0 -1 0 0 1 0 0 -1 0 1 0 0 0 1 0 " />
    </filter>
  </defs>
  <sodipodi:namedview
     id="base"
     pagecolor="#ffffff"
     bordercolor="#666666"
     borderopacity="1.0"
     inkscape:pageopacity="0.0"
     inkscape:pageshadow="2"
     inkscape:zoom="4"
     inkscape:cx="354.40181"
     inkscape:cy="509.67067"
     inkscape:document-units="px"
     inkscape:current-layer="layer1"
     showgrid="false"
     inkscape:window-width="1920"
     inkscape:window-height="1017"
     inkscape:window-x="-8"
     inkscape:window-y="-8"
     inkscape:window-maximized="1" />
  <metadata
     id="metadata7">
    <rdf:RDF>
      <cc:Work
         rdf:about="">
        <dc:format>image/svg+xml</dc:format>
        <dc:type
           rdf:resource="http://purl.org/dc/dcmitype/StillImage" />
        <dc:title />
      </cc:Work>
    </rdf:RDF>
  </metadata>
  <g
     inkscape:label="Layer 1"
     inkscape:groupmode="layer"
     id="layer1">
    <path
       style="fill:none;stroke:#000000;stroke-width:1px;stroke-linecap:butt;stroke-linejoin:miter;stroke-opacity:1"
       d="m 360.877,539.9623 0,67.42769"
       id="path9735"
       inkscape:connector-curvature="0" />
    <path
       sodipodi:type="arc"
       style="fill:none;stroke:#000000;stroke-width:0.1825;stroke-linecap:butt;stroke-linejoin:bevel;stroke-miterlimit:4;stroke-opacity:1;stroke-dasharray:none"
       id="path2995"
       sodipodi:cx="58.5"
       sodipodi:cy="49.5"
       sodipodi:rx="4.5"
       sodipodi:ry="4.5"
       d="m 63,49.5 a 4.5,4.5 0 1 1 -9,0 4.5,4.5 0 1 1 9,0 z"
       transform="matrix(0.49315068,0,0,0.49315068,303.15068,471.95122)" />
    <path
       sodipodi:type="arc"
       style="fill:none;stroke:#000000;stroke-width:0.1825;stroke-linecap:butt;stroke-linejoin:bevel;stroke-miterlimit:4;stroke-opacity:1;stroke-dasharray:none"
       id="path2995-1"
       sodipodi:cx="58.5"
       sodipodi:cy="49.5"
       sodipodi:rx="4.5"
       sodipodi:ry="4.5"
       d="m 63,49.5 a 4.5,4.5 0 1 1 -9,0 4.5,4.5 0 1 1 9,0 z"
       transform="matrix(0.49315068,0,0,0.49315068,312.15068,471.95122)" />
    <path
       sodipodi:type="arc"
       style="fill:none;stroke:#000000;stroke-width:0.1825;stroke-linecap:butt;stroke-linejoin:bevel;stroke-miterlimit:4;stroke-opacity:1;stroke-dasharray:none"
       id="path2995-7"
       sodipodi:cx="58.5"
       sodipodi:cy="49.5"
       sodipodi:rx="4.5"
       sodipodi:ry="4.5"
       d="m 63,49.5 a 4.5,4.5 0 1 1 -9,0 4.5,4.5 0 1 1 9,0 z"
       transform="matrix(0.49315068,0,0,0.49315068,321.15068,471.95122)" />
    <path
       sodipodi:type="arc"
       style="fill:none;stroke:#000000;stroke-width:0.1825;stroke-linecap:butt;stroke-linejoin:bevel;stroke-miterlimit:4;stroke-opacity:1;stroke-dasharray:none"
       id="path2995-4"
       sodipodi:cx="58.5"
       sodipodi:cy="49.5"
       sodipodi:rx="4.5"
       sodipodi:ry="4.5"
       d="m 63,49.5 a 4.5,4.5 0 1 1 -9,0 4.5,4.5 0 1 1 9,0 z"
       transform="matrix(0.49315068,0,0,0.49315068,330.15068,471.95122)" />
    <path
       sodipodi:type="arc"
       style="fill:none;stroke:#000000;stroke-width:0.1825;stroke-linecap:butt;stroke-linejoin:bevel;stroke-miterlimit:4;stroke-opacity:1;stroke-dasharray:none"
       id="path2995-8"
       sodipodi:cx="58.5"
       sodipodi:cy="49.5"
       sodipodi:rx="4.5"
       sodipodi:ry="4.5"
       d="m 63,49.5 a 4.5,4.5 0 1 1 -9,0 4.5,4.5 0 1 1 9,0 z"
       transform="matrix(0.49315068,0,0,0.49315068,303.15068,498.95122)" />
    <path
       sodipodi:type="arc"
       style="fill:none;stroke:#000000;stroke-width:0;stroke-linecap:butt;stroke-linejoin:bevel;stroke-miterlimit:4;stroke-opacity:1;stroke-dasharray:none"
       id="path2995-2"
       sodipodi:cx="58.5"
       sodipodi:cy="49.5"
       sodipodi:rx="4.5"
       sodipodi:ry="4.5"
       d="m 63,49.5 a 4.5,4.5 0 1 1 -9,0 4.5,4.5 0 1 1 9,0 z"
       transform="matrix(0.49315068,0,0,0.49315068,312.15068,498.95122)" />
    <path
       sodipodi:type="arc"
       style="fill:none;stroke:#000000;stroke-width:0.1825;stroke-linecap:butt;stroke-linejoin:bevel;stroke-miterlimit:4;stroke-opacity:1;stroke-dasharray:none"
       id="path2995-45"
       sodipodi:cx="58.5"
       sodipodi:cy="49.5"
       sodipodi:rx="4.5"
       sodipodi:ry="4.5"
       d="m 63,49.5 a 4.5,4.5 0 1 1 -9,0 4.5,4.5 0 1 1 9,0 z"
       transform="matrix(0.49315068,0,0,0.49315068,321.15068,498.95122)" />
    <path
       sodipodi:type="arc"
       style="fill:none;stroke:#000000;stroke-width:0.1825;stroke-linecap:butt;stroke-linejoin:bevel;stroke-miterlimit:4;stroke-opacity:1;stroke-dasharray:none"
       id="path2995-5"
       sodipodi:cx="58.5"
       sodipodi:cy="49.5"
       sodipodi:rx="4.5"
       sodipodi:ry="4.5"
       d="m 63,49.5 a 4.5,4.5 0 1 1 -9,0 4.5,4.5 0 1 1 9,0 z"
       transform="matrix(0.49315068,0,0,0.49315068,330.15068,498.95122)" />
    <path
       sodipodi:type="arc"
       style="fill:none;stroke:#000000;stroke-width:0.1825;stroke-linecap:butt;stroke-linejoin:bevel;stroke-miterlimit:4;stroke-opacity:1;stroke-dasharray:none"
       id="path2995-17"
       sodipodi:cx="58.5"
       sodipodi:cy="49.5"
       sodipodi:rx="4.5"
       sodipodi:ry="4.5"
       d="m 63,49.5 a 4.5,4.5 0 1 1 -9,0 4.5,4.5 0 1 1 9,0 z"
       transform="matrix(0.49315068,0,0,0.49315068,307.1654,444.95122)" />
    <path
       sodipodi:type="arc"
       style="fill:none;stroke:#000000;stroke-width:0.1825;stroke-linecap:butt;stroke-linejoin:bevel;stroke-miterlimit:4;stroke-opacity:1;stroke-dasharray:none"
       id="path2995-11"
       sodipodi:cx="58.5"
       sodipodi:cy="49.5"
       sodipodi:rx="4.5"
       sodipodi:ry="4.5"
       d="m 63,49.5 a 4.5,4.5 0 1 1 -9,0 4.5,4.5 0 1 1 9,0 z"
       transform="matrix(0.49315068,0,0,0.49315068,323.58174,444.95122)" />
    <path
       sodipodi:type="arc"
       style="fill:none;stroke:#000000;stroke-width:0.1825;stroke-linecap:butt;stroke-linejoin:bevel;stroke-miterlimit:4;stroke-opacity:1;stroke-dasharray:none"
       id="path2995-52"
       sodipodi:cx="58.5"
       sodipodi:cy="49.5"
       sodipodi:rx="4.5"
       sodipodi:ry="4.5"
       d="m 63,49.5 a 4.5,4.5 0 1 1 -9,0 4.5,4.5 0 1 1 9,0 z"
       transform="matrix(0.49315068,0,0,0.49315068,332.15068,513.95122)" />
    <path
       sodipodi:type="arc"
       style="fill:none;stroke:#000000;stroke-width:0.1825;stroke-linecap:butt;stroke-linejoin:bevel;stroke-miterlimit:4;stroke-opacity:1;stroke-dasharray:none"
       id="path2995-76"
       sodipodi:cx="58.5"
       sodipodi:cy="49.5"
       sodipodi:rx="4.5"
       sodipodi:ry="4.5"
       d="m 63,49.5 a 4.5,4.5 0 1 1 -9,0 4.5,4.5 0 1 1 9,0 z"
       transform="matrix(0.49315068,0,0,0.49315068,323.15068,513.95122)" />
    <path
       sodipodi:type="arc"
       style="fill:none;stroke:#000000;stroke-width:0.1825;stroke-linecap:butt;stroke-linejoin:bevel;stroke-miterlimit:4;stroke-opacity:1;stroke-dasharray:none"
       id="path2995-14"
       sodipodi:cx="58.5"
       sodipodi:cy="49.5"
       sodipodi:rx="4.5"
       sodipodi:ry="4.5"
       d="m 63,49.5 a 4.5,4.5 0 1 1 -9,0 4.5,4.5 0 1 1 9,0 z"
       transform="matrix(0.49315068,0,0,0.49315068,284.15068,471.95122)" />
    <path
       style="fill:#000000;fill-opacity:1;stroke:none"
       id="path3"
       d="m 458.4196,494.89091 c -1.03432,-0.59697 -2.20706,-0.72335 -3.28045,-0.4602 l 0.005,-0.008 c 0,0 -1.40386,0.53586 -1.63753,-1.76679 0.0724,-2.89133 -1.39972,-5.74066 -4.08734,-7.28962 -2.05282,-1.18606 -4.40246,-1.37894 -6.50268,-0.73458 0,0 -0.006,0.005 -0.0186,0.009 -0.0229,0.007 -0.0474,0.0137 -0.0704,0.0179 -0.44025,0.12056 -2.39537,0.44938 -2.75372,-3.09585 l -0.005,0.009 c 0,-0.01 0,-0.0204 0,-0.027 0,-0.0113 0,-0.0229 8e-5,-0.0316 l 0.001,0.007 c 0.35377,-3.49246 2.25942,-3.22514 2.73501,-3.10251 2.12765,0.68677 4.5251,0.50592 6.61158,-0.69675 2.69719,-1.55562 4.16925,-4.41576 4.08736,-7.3233 0.20203,-1.90067 1.21139,-1.84163 1.53525,-1.76929 0.0228,0.007 0.0454,0.0115 0.0682,0.0183 0.0204,0.009 0.0316,0.0137 0.0316,0.0137 l -0.002,-0.005 c 1.07339,0.26565 2.24571,0.13843 3.28044,-0.4602 2.11849,-1.22014 2.84435,-3.93519 1.6213,-6.0512 -1.22513,-2.1185 -3.9356,-2.84642 -6.0537,-1.62421 -1.0343,0.59447 -1.73022,1.54938 -2.03618,2.61278 l -0.005,-0.009 c 0,0 -0.23779,1.48079 -2.34716,0.53546 -2.47227,-1.50823 -5.67289,-1.65791 -8.35802,-0.10433 -2.05282,1.18148 -3.39559,3.1208 -3.88531,5.26215 0,0 -0.002,0.009 -0.002,0.0135 -0.007,0.0296 -0.0137,0.0519 -0.0204,0.0794 -0.11764,0.44897 -0.81687,2.2931 -4.05783,0.83476 l 0.005,0.009 c -0.0182,-0.0112 -0.0339,-0.0225 -0.0519,-0.027 l 0.007,0 c -2.85058,-2.05947 -1.65997,-3.57893 -1.31534,-3.92605 1.65789,-1.497 2.69885,-3.66538 2.69885,-6.07158 0,-3.11206 -1.73728,-5.81797 -4.29354,-7.19691 -1.58473,-1.15196 -0.96613,-2.00918 -0.75494,-2.232 0.007,-0.007 0.0137,-0.0137 0.0205,-0.0247 0.0257,-0.0201 0.0416,-0.0317 0.0416,-0.0317 l -0.006,0 c 0.76656,-0.79612 1.243,-1.87573 1.243,-3.07341 0,-2.44484 -1.98465,-4.42948 -4.43214,-4.42931 -2.44775,0 -4.43198,1.98464 -4.43215,4.42932 0,1.19727 0.47641,2.2773 1.24301,3.0734 l -0.008,0 c 0,0 1.16567,0.95033 -0.71047,2.29975 -2.5446,1.38809 -4.27275,4.08485 -4.27274,7.1857 -10e-6,2.36794 1.00936,4.49974 2.61735,5.99675 0,0 0.006,0.005 0.0161,0.0158 0.0182,0.0112 0.0358,0.0316 0.0542,0.05 0.32135,0.32177 1.58471,1.85077 -1.3066,3.9352 l 0.008,0 c -0.018,0.005 -0.034,0.0158 -0.0498,0.027 l 0.002,-0.009 c -3.20229,1.44254 -3.92356,-0.34255 -4.05326,-0.81896 -0.46684,-2.18419 -1.82332,-4.16634 -3.90983,-5.37566 -2.69428,-1.55812 -5.90611,-1.39931 -8.38048,0.12015 -1.76472,0.78488 -2.20912,-0.14053 -2.30681,-0.44897 -0.002,-0.016 -0.009,-0.0316 -0.0137,-0.0454 -0.007,-0.032 -0.009,-0.0478 -0.009,-0.0478 l -0.002,0.005 c -0.30389,-1.06384 -1.00229,-2.01831 -2.03452,-2.6128 -2.121,-1.2222 -4.83108,-0.49428 -6.05372,1.61964 -1.22471,2.12101 -0.49678,4.83565 1.62172,6.05578 1.03431,0.59864 2.20458,0.72584 3.27754,0.4602 l -0.002,0.005 c 0,0 1.40389,-0.53545 1.63542,1.76892 -0.0703,2.89423 1.40181,5.74272 4.08735,7.2917 2.05282,1.18438 4.40495,1.37686 6.50269,0.73332 0,0 0.008,-0.005 0.0206,-0.009 0.0228,-0.007 0.0449,-0.0158 0.0677,-0.0183 0.44025,-0.12014 2.39787,-0.45354 2.75579,3.09586 l 0.002,-0.009 c 0,0.008 0,0.0204 0,0.0315 0,0.007 0,0.0161 0,0.027 l -0.002,-0.009 c -0.3517,3.49745 -2.2611,3.22765 -2.73501,3.10543 -2.12516,-0.69011 -4.52303,-0.50844 -6.61159,0.69383 -2.69428,1.5581 -4.16634,4.41784 -4.08487,7.32122 -0.20411,1.92104 -1.22967,1.84412 -1.54479,1.76929 -0.0158,0 -0.0316,-0.005 -0.0475,-0.007 -0.027,-0.0115 -0.0433,-0.0154 -0.0433,-0.0154 -0.34922,-0.0861 -0.71007,-0.12969 -1.07299,-0.1297 -0.7483,0 -1.50824,0.18831 -2.20456,0.59032 -2.11851,1.22055 -2.84642,3.93312 -1.62171,6.05536 1.22262,2.1185 3.93271,2.84018 6.05369,1.61964 1.03183,-0.59698 1.73065,-1.54939 2.03453,-2.61279 l 0.005,0.006 c 0,0 0.24029,-1.47871 2.34965,-0.53503 2.47186,1.51529 5.67247,1.66454 8.3576,0.11136 2.05281,-1.18647 3.39518,-3.12745 3.88572,-5.26882 0,0 0.002,-0.002 0.005,-0.019 0.005,-0.0229 0.0115,-0.047 0.0162,-0.0698 0.11517,-0.4361 0.8094,-2.30018 4.0599,-0.83974 l -0.005,-0.006 c 0.0158,0.0154 0.0317,0.0204 0.0474,0.0316 l -0.006,0 c 2.84892,2.05033 1.66496,3.5702 1.31991,3.9194 -1.65998,1.49868 -2.70342,3.6629 -2.70342,6.07158 0,3.11373 1.73979,5.82005 4.29562,7.20357 1.55396,1.12701 0.98692,1.97549 0.76492,2.21828 -0.0138,0.0152 -0.0299,0.0291 -0.0436,0.045 -0.0115,0.0104 -0.0206,0.0177 -0.0249,0.0245 -0.76656,0.79655 -1.2405,1.87573 -1.24051,3.06926 1e-5,2.44734 1.98215,4.42906 4.42949,4.42906 2.44732,0 4.43198,-1.98214 4.43193,-4.4291 1e-5,-1.19519 -0.47642,-2.27273 -1.243,-3.06925 l 0.008,0 c 0,0 -1.16609,-0.94991 0.71004,-2.30433 2.54504,-1.38352 4.27276,-4.08485 4.27275,-7.18736 0,-2.36586 -1.00936,-4.49974 -2.61942,-5.99466 -0.002,-0.002 -0.007,-0.007 -0.0137,-0.0137 -0.018,-0.0137 -0.034,-0.034 -0.0521,-0.0493 -0.3243,-0.32006 -1.58763,-1.85119 1.30411,-3.93312 l -0.007,0 c 0.0156,-0.0113 0.0317,-0.0204 0.047,-0.0316 l -0.001,0.007 c 3.20019,-1.44047 3.92355,0.34504 4.05533,0.82105 0.46768,2.18251 1.82126,4.16922 3.90776,5.37607 2.69469,1.55811 5.90611,1.40138 8.38337,-0.12015 1.75308,-0.7803 2.20457,0.13138 2.30184,0.44398 0.007,0.0201 0.0137,0.0433 0.0187,0.0657 0.007,0.0201 0.007,0.0316 0.007,0.0316 l 0.002,-0.005 c 0.30598,1.06591 1.00189,2.01624 2.0362,2.6128 2.1185,1.22054 4.82857,0.49845 6.0537,-1.61965 1.22221,-2.12224 0.49636,-4.83481 -1.62213,-6.05536 z m -15.30594,-28.09509 c 2.1185,-1.22056 4.82899,-0.4943 6.05369,1.62379 1.22264,2.12099 0.49679,4.83106 -1.6213,6.05161 -2.121,1.22722 -4.82898,0.49678 -6.05368,-1.61964 -1.22472,-2.12058 -0.49721,-4.83105 1.62129,-6.05576 z m -31.73098,6.05576 c -1.2247,2.11601 -3.93519,2.84643 -6.05369,1.61964 -2.121,-1.22055 -2.84684,-3.93061 -1.62172,-6.0516 1.22222,-2.11852 3.93271,-2.84436 6.05369,-1.6238 2.1185,1.2247 2.84436,3.93518 1.62172,6.05576 z m -1.62171,23.43822 c -2.12099,1.22057 -4.83106,0.49429 -6.0537,-1.62379 -1.22471,-2.12223 -0.49887,-4.83107 1.62172,-6.05327 2.11851,-1.22513 4.82858,-0.4968 6.05369,1.61921 1.22263,2.12349 0.49679,4.83107 -1.62171,6.05785 z m 16.6753,-40.99152 c 2.44734,0 4.43198,1.98256 4.43165,4.43024 0,2.4494 -1.98463,4.43195 -4.43196,4.43195 -2.44776,1e-5 -4.43199,-1.98255 -4.43199,-4.43195 0,-2.44735 1.98464,-4.42991 4.43165,-4.43024 z m 0,52.48905 c -2.44775,0 -4.42948,-1.98213 -4.42981,-4.43123 0,-2.44318 1.98215,-4.4274 4.42949,-4.42989 2.44734,0 4.43197,1.98672 4.43164,4.43023 0,2.44941 -1.98463,4.43155 -4.43197,4.43155 z m 1e-5,-18.0613 c -4.51803,0 -8.18135,-3.66748 -8.18135,-8.18094 0,-4.51803 3.66332,-8.18342 8.18168,-8.18309 4.51803,0 8.18092,3.66497 8.18075,8.18358 0,4.51346 -3.66289,8.18094 -8.18092,8.18094 z m 22.73108,4.93998 c -1.22429,2.11851 -3.93313,2.84435 -6.05369,1.62379 -2.11894,-1.22678 -2.84643,-3.93476 -1.62173,-6.05785 1.22262,-2.11601 3.93312,-2.84434 6.0537,-1.61921 2.1185,1.2222 2.84434,3.93477 1.62172,6.05327 z"
       inkscape:connector-curvature="0" />
    <circle
       style="fill:none;stroke:#000000;stroke-width:0.09;stroke-linecap:butt;stroke-linejoin:bevel;stroke-miterlimit:4;stroke-dasharray:none;stroke-opacity:1"
       id="path2995-76-1"
       cx="319.03409"
       cy="531.25635"
       r="2.219178" />
    <text
       xml:space="preserve"
       style="font-size:9.91942787px;font-style:normal;font-variant:normal;font-weight:bold;font-stretch:normal;line-height:125%;letter-spacing:0px;word-spacing:0px;fill:#000000;fill-opacity:1;stroke:none;font-family:Segoe UI;-inkscape-font-specification:Segoe UI Bold"
       x="-619.44012"
       y="386.96359"
       id="text3982"
       sodipodi:linespacing="125%"
       transform="matrix(0,-1,1,0,0,0)"><tspan
         sodipodi:role="line"
         id="tspan3984"
         x="-619.44012"
         y="386.96359">pumpingstationone.org</tspan></text>
    <text
       sodipodi:linespacing="125%"
       id="text3026"
       y="524.35974"
       x="391.75"
       style="font-size:14px;font-style:normal;font-variant:normal;font-weight:bold;font-stretch:normal;line-height:125%;letter-spacing:0px;word-spacing:0px;fill:#000000;fill-opacity:1;stroke:none;font-family:Segoe UI;-inkscape-font-specification:Segoe UI Bold"
       xml:space="preserve"><tspan
         y="524.35974"
         x="391.75"
         id="tspan3028"
         sodipodi:role="line" /></text>
    <text
       sodipodi:linespacing="125%"
       id="text3040"
       y="617.1355"
       x="386.9642"
       style="font-size:4px;font-style:normal;font-variant:normal;font-weight:bold;font-stretch:normal;line-height:125%;letter-spacing:0px;word-spacing:0px;fill:#000000;fill-opacity:1;stroke:none;font-family:Segoe UI;-inkscape-font-specification:Segoe UI Bold"
       xml:space="preserve"><tspan
         y="617.1355"
         x="386.9642"
         id="tspan3042"
         sodipodi:role="line" /></text>
    <path
       sodipodi:type="arc"
       style="fill:none;stroke:#000000;stroke-width:0.1825;stroke-linecap:butt;stroke-linejoin:bevel;stroke-miterlimit:4;stroke-opacity:1;stroke-dasharray:none"
       id="path2995-76-1-1"
       sodipodi:cx="58.5"
       sodipodi:cy="49.5"
       sodipodi:rx="4.5"
       sodipodi:ry="4.5"
       d="m 63,49.5 a 4.5,4.5 0 1 1 -9,0 4.5,4.5 0 1 1 9,0 z"
       transform="matrix(0.49315068,0,0,0.49315068,312.15068,498.95122)" />
    <rect
       style="fill:none;stroke:#000000;stroke-opacity:1"
       id="rect3088"
       width="31.440998"
       height="20.329321"
       x="330.06735"
       y="499.68002" />
    <text
       xml:space="preserve"
       style="font-size:22px;font-style:normal;font-variant:normal;font-weight:bold;font-stretch:normal;line-height:125%;letter-spacing:0px;word-spacing:0px;fill:#000000;fill-opacity:1;stroke:none;font-family:Segoe UI;-inkscape-font-specification:Segoe UI Bold"
       x="335.1181"
       y="517.61023"
       id="text3858"
       sodipodi:linespacing="125%"><tspan
         sodipodi:role="line"
         id="tspan3860"
         x="335.1181"
         y="517.61023">IC</tspan></text>
    <path
       sodipodi:type="arc"
       style="fill:none;stroke:#000000;stroke-width:0.1825;stroke-linecap:butt;stroke-linejoin:bevel;stroke-miterlimit:4;stroke-opacity:1;stroke-dasharray:none"
       id="path2995-76-2"
       sodipodi:cx="58.5"
       sodipodi:cy="49.5"
       sodipodi:rx="4.5"
       sodipodi:ry="4.5"
       d="m 63,49.5 a 4.5,4.5 0 1 1 -9,0 4.5,4.5 0 1 1 9,0 z"
       transform="matrix(0.34871019,0.34871019,-0.34871019,0.34871019,321.33531,540.62307)" />
    <path
       sodipodi:type="arc"
       style="fill:none;stroke:#000000;stroke-width:0.09253472;stroke-linecap:butt;stroke-linejoin:bevel;stroke-miterlimit:4;stroke-opacity:1;stroke-dasharray:none"
       id="path2995-76-3"
       sodipodi:cx="58.5"
       sodipodi:cy="49.5"
       sodipodi:rx="4.5"
       sodipodi:ry="4.5"
       d="m 63,49.5 a 4.5,4.5 0 1 1 -9,0 4.5,4.5 0 1 1 9,0 z"
       transform="matrix(0.68773763,0.68773763,-0.68773763,0.68773763,350.11649,535.84054)" />
    <path
       sodipodi:type="arc"
       style="fill:none;stroke:#000000;stroke-width:0.09277566;stroke-linecap:butt;stroke-linejoin:bevel;stroke-miterlimit:4;stroke-opacity:1;stroke-dasharray:none"
       id="path2995-76-22"
       sodipodi:cx="58.5"
       sodipodi:cy="49.5"
       sodipodi:rx="4.5"
       sodipodi:ry="4.5"
       d="m 63,49.5 a 4.5,4.5 0 1 1 -9,0 4.5,4.5 0 1 1 9,0 z"
       transform="matrix(0.68799182,0.68799182,-0.6839174,0.6839174,286.27291,472.37516)" />
    <circle
       style="fill:none;stroke:#000000;stroke-width:0.1825;stroke-linecap:butt;stroke-linejoin:bevel;stroke-miterlimit:4;stroke-opacity:1;stroke-dasharray:none"
       id="path2995-76-2-4"
       transform="matrix(0.34871019,0.34871019,-0.34871019,0.34871019,313.04114,548.91724)"
       d="m 63,49.5 a 4.5,4.5 0 1 1 -9,0 4.5,4.5 0 1 1 9,0 z"
       sodipodi:type="arc"
       sodipodi:ry="4.5"
       sodipodi:rx="4.5"
       sodipodi:cy="49.5"
       sodipodi:cx="58.5" />
    <text
       xml:space="preserve"
       style="font-size:26.55494881px;font-style:normal;font-variant:normal;font-weight:bold;font-stretch:normal;line-height:125%;letter-spacing:0px;word-spacing:0px;fill:#000000;fill-opacity:1;stroke:none;font-family:Segoe UI;-inkscape-font-specification:Segoe UI Bold"
       x="606.2052"
       y="178.16086"
       id="text3862"
       sodipodi:linespacing="125%"
       transform="matrix(0.70710678,0.70710678,-0.70710678,0.70710678,0,0)"><tspan
         sodipodi:role="line"
         id="tspan3864"
         x="606.2052"
         y="178.16086"
         style="font-size:19.17857361px;font-weight:normal">Battery</tspan><tspan
         sodipodi:role="line"
         x="606.2052"
         y="202.13408"
         id="tspan3866"
         style="font-size:19.17857361px;font-weight:normal">Holder</tspan></text>
    <g
       id="g3532"
       transform="matrix(0.99849042,-0.05492599,0.05492599,0.99849042,-30.574944,12.759113)">
      <g
         id="g3440"
         transform="matrix(0.73575283,0.67725015,-0.67725015,0.73575283,440.2736,-85.469402)">
        <rect
           style="fill:none;stroke:#000000;stroke-width:0.69;stroke-linecap:butt;stroke-linejoin:bevel;stroke-miterlimit:4;stroke-dasharray:none;stroke-opacity:1"
           id="rect3868"
           width="6.7857141"
           height="22.321428"
           x="-121.17332"
           y="594.85614"
           transform="matrix(0.73946993,-0.67318959,0.67318959,0.73946993,0,0)" />
        <text
           xml:space="preserve"
           style="font-style:normal;font-variant:normal;font-weight:bold;font-stretch:normal;font-size:63.65287781px;line-height:125%;font-family:'Segoe UI';-inkscape-font-specification:'Segoe UI Bold';letter-spacing:0px;word-spacing:0px;fill:#000000;fill-opacity:1;stroke:none"
           x="595.09149"
           y="119.50368"
           id="text3870"
           sodipodi:linespacing="125%"
           transform="matrix(0.67318959,0.73946993,-0.73946993,0.67318959,0,0)"><tspan
             sodipodi:role="line"
             id="tspan3872"
             x="595.09149"
             y="119.50368"
             style="font-weight:normal;font-size:5.30440617px">Resistor</tspan></text>
      </g>
    </g>
    <path
       sodipodi:type="arc"
       style="fill:none;stroke:#000000;stroke-width:0.69;stroke-linecap:butt;stroke-linejoin:bevel;stroke-miterlimit:4;stroke-opacity:1;stroke-dasharray:none"
       id="path3886"
       sodipodi:cx="346.42856"
       sodipodi:cy="471.11218"
       sodipodi:rx="16.428572"
       sodipodi:ry="16.428572"
       d="m 362.85713,471.11218 a 16.428572,16.428572 0 1 1 -32.85714,0 16.428572,16.428572 0 1 1 32.85714,0 z"
       transform="translate(-1.9571068,-1.6095755)" />
    <text
       xml:space="preserve"
       style="font-size:16px;font-style:normal;font-variant:normal;font-weight:bold;font-stretch:normal;line-height:125%;letter-spacing:0px;word-spacing:0px;fill:#000000;fill-opacity:1;stroke:none;font-family:Segoe UI;-inkscape-font-specification:Segoe UI Bold"
       x="325.46429"
       y="452.18118"
       id="text3888"
       sodipodi:linespacing="125%"><tspan
         sodipodi:role="line"
         id="tspan3890"
         x="325.46429"
         y="452.18118"
         style="font-size:11px;font-weight:normal">Buzzer</tspan></text>
    <path
       sodipodi:type="arc"
       style="fill:none;stroke:#000000;stroke-width:0.69;stroke-linecap:butt;stroke-linejoin:bevel;stroke-miterlimit:4;stroke-opacity:1;stroke-dasharray:none"
       id="path3892"
       sodipodi:cx="358.38318"
       sodipodi:cy="509.62616"
       sodipodi:rx="2.8094869"
       sodipodi:ry="2.8094869"
       d="m 361.19267,509.62616 a 2.8094869,2.8094869 0 1 1 -5.61898,0 2.8094869,2.8094869 0 1 1 5.61898,0 z"
       transform="translate(0.44194174,-0.00243262)" />
    <path
       sodipodi:type="arc"
       style="fill:none;stroke:#000000;stroke-width:0.69;stroke-linecap:butt;stroke-linejoin:bevel;stroke-miterlimit:4;stroke-opacity:1;stroke-dasharray:none"
       id="path3894"
       sodipodi:cx="355.32117"
       sodipodi:cy="534.91156"
       sodipodi:rx="8.8388348"
       sodipodi:ry="8.8388348"
       d="m 364.16,534.91156 a 8.8388348,8.8388348 0 1 1 -17.67767,0 8.8388348,8.8388348 0 1 1 17.67767,0 z"
       transform="translate(0.625,5.6225674)" />
    <text
       xml:space="preserve"
       style="font-size:11.14480591px;font-style:normal;font-variant:normal;font-weight:bold;font-stretch:normal;line-height:125%;letter-spacing:0px;word-spacing:0px;fill:#000000;fill-opacity:1;stroke:none;font-family:Segoe UI;-inkscape-font-specification:Segoe UI Bold"
       x="-560.92334"
       y="369.10144"
       id="text3896"
       sodipodi:linespacing="125%"
       transform="matrix(0,-1,1,0,0,0)"><tspan
         sodipodi:role="line"
         x="-560.92334"
         y="369.10144"
         style="font-size:6.36846018px;font-weight:normal"
         id="tspan4069">Photoresistor</tspan></text>
    <g
       id="g9718"
       transform="matrix(0,-1.1643197,1.1643197,0,-227.01266,1060.5661)">
      <text
         xml:space="preserve"
         style="font-size:13.17869473px;font-style:normal;font-variant:normal;font-weight:normal;font-stretch:normal;line-height:125%;letter-spacing:0px;word-spacing:0px;fill:#000000;fill-opacity:1;stroke:none;font-family:Arial;-inkscape-font-specification:Arial"
         x="378.64301"
         y="567.68713"
         id="text3030"
         sodipodi:linespacing="125%"><tspan
           sodipodi:role="line"
           id="tspan3032"
           x="378.64301"
           y="567.68713"
           style="font-style:normal;font-variant:normal;font-weight:normal;font-stretch:normal;font-family:Arial;-inkscape-font-specification:Arial">Noise-O-Tron</tspan></text>
      <text
         xml:space="preserve"
         style="font-size:8.343153px;font-style:normal;font-variant:normal;font-weight:bold;font-stretch:normal;text-align:center;line-height:125%;letter-spacing:0px;word-spacing:0px;text-anchor:middle;fill:#000000;fill-opacity:1;stroke:none;font-family:Segoe UI;-inkscape-font-specification:Segoe UI Bold"
         x="416.87207"
         y="578.34564"
         id="text3034"
         sodipodi:linespacing="125%"><tspan
           sodipodi:role="line"
           id="tspan3036"
           x="418.20013"
           y="578.34564"
           style="font-size:8.343153px;font-weight:normal;text-align:center;text-anchor:middle">ATTiny45 based </tspan><tspan
           sodipodi:role="line"
           x="416.87207"
           y="588.7746"
           style="font-size:8.343153px;font-weight:normal;text-align:center;text-anchor:middle"
           id="tspan3038">optical theremin</tspan></text>
      <text
         sodipodi:linespacing="125%"
         id="text3246"
         y="596.25391"
         x="369.94046"
         style="font-size:5.56210184px;font-style:normal;font-variant:normal;font-weight:bold;font-stretch:normal;line-height:125%;letter-spacing:0px;word-spacing:0px;fill:#000000;fill-opacity:1;stroke:none;font-family:Segoe UI;-inkscape-font-specification:Segoe UI Bold"
         xml:space="preserve"><tspan
           style="font-weight:normal"
           y="596.25391"
           x="369.94046"
           sodipodi:role="line"
           id="tspan3055" /></text>
      <text
         xml:space="preserve"
         style="font-size:40px;font-style:normal;font-variant:normal;font-weight:normal;font-stretch:normal;line-height:125%;letter-spacing:0px;word-spacing:0px;fill:#000000;fill-opacity:1;stroke:none;font-family:esint10;-inkscape-font-specification:esint10"
         x="395.9798"
         y="613.45093"
         id="text3084"
         sodipodi:linespacing="125%"
         transform="matrix(0,0.85887063,-0.85887063,0,910.88908,194.97451)"><tspan
           y="613.45093"
           x="395.9798"
           sodipodi:role="line"
           id="tspan3086" /></text>
    </g>
    <path
       style="fill:none;stroke:#000000;stroke-width:1.05626225px;stroke-linecap:butt;stroke-linejoin:miter;stroke-opacity:1"
       d="m 358.71809,524.38196 2.63932,12.52883"
       id="path9741"
       inkscape:connector-curvature="0" />
    <path
       style="fill:none;stroke:#000000;stroke-width:1.10047603px;stroke-linecap:butt;stroke-linejoin:miter;stroke-opacity:1"
       d="m 314.33395,496.27321 15.84099,0"
       id="path9743"
       inkscape:connector-curvature="0" />
    <path
       style="fill:none;stroke:#000000;stroke-width:1.33705962px;stroke-linecap:butt;stroke-linejoin:miter;stroke-opacity:1"
       d="m 324.59551,579.14797 -7.42849,7.42849"
       id="path9745"
       inkscape:connector-curvature="0" />
    <path
       style="fill:none;stroke:#000000;stroke-width:1px;stroke-linecap:butt;stroke-linejoin:miter;stroke-opacity:1"
       d="m 336.50472,470.99915 3.91976,23.41272"
       id="path9749"
       inkscape:connector-curvature="0" />
    <path
       style="fill:none;stroke:#000000;stroke-width:1.05002117px;stroke-linecap:butt;stroke-linejoin:miter;stroke-opacity:1"
       d="m 352.72178,470.40985 -2.2086,24.02923"
       id="path9751"
       inkscape:connector-curvature="0" />
    <path
       style="fill:none;stroke:#000000;stroke-width:1px;stroke-linecap:butt;stroke-linejoin:miter;stroke-opacity:1"
       d="m 360.75073,606.88491 -4.67196,3.78808"
       id="path3072"
       inkscape:connector-curvature="0" />
    <text
       xml:space="preserve"
       style="font-size:40px;font-style:normal;font-variant:normal;font-weight:normal;font-stretch:normal;line-height:125%;letter-spacing:0px;word-spacing:0px;fill:#000000;fill-opacity:1;stroke:none;font-family:Doctor Who;-inkscape-font-specification:Doctor Who"
       x="347.49246"
       y="564.71106"
       id="text3074"
       sodipodi:linespacing="125%"><tspan
         y="564.71106"
         x="347.49246"
         sodipodi:role="line"
         id="tspan3076" /></text>
    <path
       style="fill:none;stroke:#000000;stroke-width:0.8356052px;stroke-linecap:butt;stroke-linejoin:miter;stroke-opacity:1"
       d="m 320.09754,583.27048 -17.9099,-26.15819 0,-61.17219 9.58493,0"
       id="path3082"
       inkscape:connector-curvature="0"
       sodipodi:nodetypes="cccc" />
    <text
       xml:space="preserve"
       style="font-size:18.71801949px;font-style:normal;font-variant:normal;font-weight:500;font-stretch:normal;line-height:125%;letter-spacing:0px;word-spacing:0px;fill:#000000;fill-opacity:1;stroke:none;font-family:Century Schoolbook L;-inkscape-font-specification:Century Schoolbook L Medium"
       x="-618.99921"
       y="414.67371"
       id="text3088"
       sodipodi:linespacing="125%"
       transform="matrix(0,-1,1,0,0,0)"><tspan
         sodipodi:role="line"
         id="tspan3090"
         x="-618.99921"
         y="414.67371">git.io/1I-Jgg</tspan></text>
    <path
       style="fill:none;stroke:#000000;stroke-width:1px;stroke-linecap:butt;stroke-linejoin:miter;stroke-opacity:1"
       d="m 349.92521,525.68841 1.72437,11.45479"
       id="path3269"
       inkscape:connector-curvature="0" />
    <path
       style="fill:none;stroke:#000000;stroke-width:1px;stroke-linecap:butt;stroke-linejoin:miter;stroke-opacity:1"
       d="m 328.00099,535.78833 12.80966,2.70973 10.9621,-0.24634"
       id="path3271"
       inkscape:connector-curvature="0" />
    <path
       style="fill:none;stroke:#000000;stroke-width:0.4;stroke-linecap:butt;stroke-linejoin:miter;stroke-opacity:1;stroke-miterlimit:4;stroke-dasharray:none"
       d="m 363.22616,612.40607 0,3.0483"
       id="path3275"
       inkscape:connector-curvature="0" />
    <path
       style="fill:none;stroke:#000000;stroke-width:0.4;stroke-linecap:butt;stroke-linejoin:miter;stroke-opacity:1;stroke-miterlimit:4;stroke-dasharray:none"
       d="m 364.75031,613.93022 -3.0483,0"
       id="path3275-0"
       inkscape:connector-curvature="0" />
    <path
       style="fill:none;stroke:#000000;stroke-width:0.3;stroke-linecap:butt;stroke-linejoin:miter;stroke-opacity:1;stroke-miterlimit:4;stroke-dasharray:none"
       d="m 322.08885,585.11781 3.17162,0"
       id="path4063"
       inkscape:connector-curvature="0" />
    <path
       style="fill:#0099b0"
       inkscape:connector-curvature="0"
       d="m 293.94736,481.14182 4.09295,-2.80939 c 0.0998,-0.0681 0.27059,-0.0814 0.38,-0.0286 l 3.52592,1.41015 c 0.11569,0.0368 0.22779,0.16396 0.25001,0.28367 l 0.91995,4.94155 c 0.0225,0.11857 0.13919,0.21647 0.26052,0.21645 l 5.02298,0 c 0.12146,0 0.23834,-0.0972 0.26032,-0.21625 l 0.93571,-5.02865 c 0.0221,-0.11901 0.13429,-0.2486 0.2488,-0.28737 l 3.37183,-1.41311 c 0.10818,-0.0544 0.27816,-0.0426 0.3783,0.0257 l 4.23405,2.90513 c 0.0997,0.0687 0.25148,0.0547 0.33716,-0.031 l 3.55216,-3.55216 c 0.0855,-0.0855 0.0995,-0.23723 0.0309,-0.33696 l -2.90536,-4.23383 c -0.0682,-0.10011 -0.0802,-0.26994 -0.0255,-0.3783 l 1.41331,-3.37204 c 0.0389,-0.11468 0.1686,-0.22693 0.28737,-0.24881 l 5.02845,-0.93549 c 0.11929,-0.0224 0.21669,-0.13934 0.21645,-0.26052 l 2.2e-4,-5.0232 c -2e-4,-0.12116 -0.0974,-0.23854 -0.21645,-0.26052 l -4.94176,-0.91975 c -0.11929,-0.0226 -0.24642,-0.13487 -0.28336,-0.25031 l -1.40995,-3.52612 c -0.0528,-0.1092 -0.0401,-0.27985 0.0286,-0.38 l 2.8092,-4.09275 c 0.0685,-0.1004 0.0544,-0.25168 -0.0313,-0.33736 l -3.55216,-3.55174 c -0.0857,-0.0857 -0.23786,-0.10011 -0.33738,-0.0313 l -3.99283,2.73991 c -0.0994,0.0688 -0.26952,0.079 -0.37684,0.0229 l -3.67624,-1.57434 c -0.11453,-0.0395 -0.2263,-0.16878 -0.24819,-0.28797 l -0.87439,-4.69864 c -0.0222,-0.11886 -0.13963,-0.21648 -0.26074,-0.21667 l -5.02342,4.2e-4 c -0.12073,2.1e-4 -0.2378,0.0976 -0.26052,0.21647 l -0.85843,4.61592 c -0.0222,0.11886 -0.1366,0.24085 -0.25325,0.2716 l -1.85165,0.56264 c -0.11539,0.0374 -0.17175,0.15952 -0.12534,0.27143 l 3.52507,8.50314 c 0.0462,0.11208 0.18015,0.18013 0.29788,0.15182 l 0.48706,-0.11713 c 0.0899,-0.0218 0.22425,-0.0391 0.33737,-0.0447 1.78763,-0.39194 3.73146,0.10588 5.12166,1.49604 2.16952,2.16952 2.16932,5.68703 0,7.85633 -2.16928,2.1693 -5.68659,2.1693 -7.85611,-2.2e-4 -1.39021,-1.3902 -1.88818,-3.33383 -1.49602,-5.12166 0.006,-0.11265 0.0226,-0.24731 0.0443,-0.33695 l 0.11713,-0.48705 c 0.028,-0.11727 -0.0398,-0.25152 -0.15182,-0.29788 l -8.50314,-3.5255 c -0.11193,-0.0464 -0.23366,0.0101 -0.27143,0.12535 l -0.56262,1.85167 c -0.0309,0.11698 -0.15241,0.23135 -0.2716,0.25323 l -4.61613,0.85867 c -0.11857,0.0225 -0.21628,0.13977 -0.21625,0.2603 l -4.2e-4,5.0234 c 0,0.12146 0.0975,0.23876 0.21667,0.26074 l 4.69885,0.87418 c 0.11886,0.0224 0.24836,0.13372 0.28787,0.24831 l 1.57433,3.67625 c 0.0558,0.10746 0.0464,0.27689 -0.0226,0.37663 l -2.73991,3.99283 c -0.0687,0.0992 -0.0544,0.25166 0.0313,0.33736 l 3.55154,3.55237 c 0.0857,0.0861 0.23722,0.1 0.33715,0.0319"
       id="path4201" />
    <path
       style="fill:none;fill-rule:evenodd;stroke:#000000;stroke-width:1px;stroke-linecap:butt;stroke-linejoin:miter;stroke-opacity:1"
       d="m 313,496.98718 3.25,6.5"
       id="path3445"
       inkscape:connector-curvature="0" />
    <path
       style="fill:none;fill-rule:evenodd;stroke:#000000;stroke-width:1px;stroke-linecap:butt;stroke-linejoin:miter;stroke-opacity:1"
       d="m 328.375,535.98718 -7.75,-3.875"
       id="path3447"
       inkscape:connector-curvature="0" />
    <path
       style="fill:none;fill-rule:evenodd;stroke:#000000;stroke-width:1px;stroke-linecap:butt;stroke-linejoin:miter;stroke-opacity:1"
       d="m 317.049,525.74441 1.23744,3.71231"
       id="path3449"
       inkscape:connector-curvature="0" />
    <path
       style="fill:none;fill-rule:evenodd;stroke:#00ff00;stroke-width:0.09;stroke-linecap:butt;stroke-linejoin:miter;stroke-miterlimit:4;stroke-dasharray:none;stroke-opacity:1"
       d="M 284.64182 571.78349 L 335.58308 622.35913 "
       id="path4221-9" />
    <path
       id="path4290"
       style="fill:none;stroke:#00ff00;stroke-width:0.09;stroke-miterlimit:4;stroke-dasharray:none;stroke-opacity:1"
       d="m 284.64286,571.80946 -10e-6,-129.44728 0,0 180,0 0,180 -129.08203,0" />
  </g>
</svg>
