<?xml version="1.0" encoding="UTF-8" standalone="no"?>
<!-- Created with Inkscape (http://www.inkscape.org/) -->

<svg
   xmlns:dc="http://purl.org/dc/elements/1.1/"
   xmlns:cc="http://creativecommons.org/ns#"
   xmlns:rdf="http://www.w3.org/1999/02/22-rdf-syntax-ns#"
   xmlns:svg="http://www.w3.org/2000/svg"
   xmlns="http://www.w3.org/2000/svg"
   xmlns:sodipodi="http://sodipodi.sourceforge.net/DTD/sodipodi-0.dtd"
   xmlns:inkscape="http://www.inkscape.org/namespaces/inkscape"
   width="744.09448819"
   height="1052.3622047"
   id="svg2"
   version="1.1"
   inkscape:version="0.48.4 r9939"
   sodipodi:docname="laserboard430-5.pdf"
   inkscape:export-filename="C:\Documents and Settings\dbever\Desktop\laserboard430-5.png"
   inkscape:export-xdpi="90"
   inkscape:export-ydpi="90">
  <defs
     id="defs4">
    <filter
       color-interpolation-filters="sRGB"
       inkscape:menu-tooltip="Invert colors"
       inkscape:menu="Color"
       height="1"
       width="1"
       y="0"
       x="0"
       inkscape:label="Invert"
       id="filter3231">
      <feColorMatrix
         result="fbSourceGraphic"
         values="1"
         type="saturate"
         id="feColorMatrix3233" />
      <feColorMatrix
         values="-1 0 0 0 1 0 -1 0 0 1 0 0 -1 0 1 0 0 0 1 0 "
         in="fbSourceGraphic"
         id="feColorMatrix3235" />
    </filter>
    <rect
       height="9"
       width="9"
       id="p" />
    <rect
       height="40"
       width="40"
       id="p-8" />
    <filter
       id="filter9701"
       inkscape:label="Invert"
       x="0"
       y="0"
       width="1"
       height="1"
       inkscape:menu="Color"
       inkscape:menu-tooltip="Invert colors"
       color-interpolation-filters="sRGB">
      <feColorMatrix
         id="feColorMatrix9703"
         type="saturate"
         values="1"
         result="fbSourceGraphic" />
      <feColorMatrix
         id="feColorMatrix9705"
         in="fbSourceGraphic"
         values="-1 0 0 0 1 0 -1 0 0 1 0 0 -1 0 1 0 0 0 1 0 " />
    </filter>
  </defs>
  <sodipodi:namedview
     id="base"
     pagecolor="#ffffff"
     bordercolor="#666666"
     borderopacity="1.0"
     inkscape:pageopacity="0.0"
     inkscape:pageshadow="2"
     inkscape:zoom="3.959798"
     inkscape:cx="358.53213"
     inkscape:cy="525.84832"
     inkscape:document-units="px"
     inkscape:current-layer="layer1"
     showgrid="false"
     inkscape:window-width="1280"
     inkscape:window-height="968"
     inkscape:window-x="-4"
     inkscape:window-y="-4"
     inkscape:window-maximized="1" />
  <metadata
     id="metadata7">
    <rdf:RDF>
      <cc:Work
         rdf:about="">
        <dc:format>image/svg+xml</dc:format>
        <dc:type
           rdf:resource="http://purl.org/dc/dcmitype/StillImage" />
        <dc:title></dc:title>
      </cc:Work>
    </rdf:RDF>
  </metadata>
  <g
     inkscape:label="Layer 1"
     inkscape:groupmode="layer"
     id="layer1">
    <path
       style="fill:none;stroke:#000000;stroke-width:1px;stroke-linecap:butt;stroke-linejoin:miter;stroke-opacity:1"
       d="m 360.877,539.9623 0,67.42769"
       id="path9735"
       inkscape:connector-curvature="0" />
    <path
       sodipodi:type="arc"
       style="fill:none;stroke:#000000;stroke-width:0.1825;stroke-linecap:butt;stroke-linejoin:bevel;stroke-miterlimit:4;stroke-opacity:1;stroke-dasharray:none"
       id="path2995"
       sodipodi:cx="58.5"
       sodipodi:cy="49.5"
       sodipodi:rx="4.5"
       sodipodi:ry="4.5"
       d="m 63,49.5 a 4.5,4.5 0 1 1 -9,0 4.5,4.5 0 1 1 9,0 z"
       transform="matrix(0.49315068,0,0,0.49315068,303.15068,471.95122)" />
    <path
       sodipodi:type="arc"
       style="fill:none;stroke:#000000;stroke-width:0.1825;stroke-linecap:butt;stroke-linejoin:bevel;stroke-miterlimit:4;stroke-opacity:1;stroke-dasharray:none"
       id="path2995-1"
       sodipodi:cx="58.5"
       sodipodi:cy="49.5"
       sodipodi:rx="4.5"
       sodipodi:ry="4.5"
       d="m 63,49.5 a 4.5,4.5 0 1 1 -9,0 4.5,4.5 0 1 1 9,0 z"
       transform="matrix(0.49315068,0,0,0.49315068,312.15068,471.95122)" />
    <path
       sodipodi:type="arc"
       style="fill:none;stroke:#000000;stroke-width:0.1825;stroke-linecap:butt;stroke-linejoin:bevel;stroke-miterlimit:4;stroke-opacity:1;stroke-dasharray:none"
       id="path2995-7"
       sodipodi:cx="58.5"
       sodipodi:cy="49.5"
       sodipodi:rx="4.5"
       sodipodi:ry="4.5"
       d="m 63,49.5 a 4.5,4.5 0 1 1 -9,0 4.5,4.5 0 1 1 9,0 z"
       transform="matrix(0.49315068,0,0,0.49315068,321.15068,471.95122)" />
    <path
       sodipodi:type="arc"
       style="fill:none;stroke:#000000;stroke-width:0.1825;stroke-linecap:butt;stroke-linejoin:bevel;stroke-miterlimit:4;stroke-opacity:1;stroke-dasharray:none"
       id="path2995-4"
       sodipodi:cx="58.5"
       sodipodi:cy="49.5"
       sodipodi:rx="4.5"
       sodipodi:ry="4.5"
       d="m 63,49.5 a 4.5,4.5 0 1 1 -9,0 4.5,4.5 0 1 1 9,0 z"
       transform="matrix(0.49315068,0,0,0.49315068,330.15068,471.95122)" />
    <path
       sodipodi:type="arc"
       style="fill:none;stroke:#000000;stroke-width:0.1825;stroke-linecap:butt;stroke-linejoin:bevel;stroke-miterlimit:4;stroke-opacity:1;stroke-dasharray:none"
       id="path2995-8"
       sodipodi:cx="58.5"
       sodipodi:cy="49.5"
       sodipodi:rx="4.5"
       sodipodi:ry="4.5"
       d="m 63,49.5 a 4.5,4.5 0 1 1 -9,0 4.5,4.5 0 1 1 9,0 z"
       transform="matrix(0.49315068,0,0,0.49315068,303.15068,498.95122)" />
    <path
       sodipodi:type="arc"
       style="fill:none;stroke:#000000;stroke-width:0;stroke-linecap:butt;stroke-linejoin:bevel;stroke-miterlimit:4;stroke-opacity:1;stroke-dasharray:none"
       id="path2995-2"
       sodipodi:cx="58.5"
       sodipodi:cy="49.5"
       sodipodi:rx="4.5"
       sodipodi:ry="4.5"
       d="m 63,49.5 a 4.5,4.5 0 1 1 -9,0 4.5,4.5 0 1 1 9,0 z"
       transform="matrix(0.49315068,0,0,0.49315068,312.15068,498.95122)" />
    <path
       sodipodi:type="arc"
       style="fill:none;stroke:#000000;stroke-width:0.1825;stroke-linecap:butt;stroke-linejoin:bevel;stroke-miterlimit:4;stroke-opacity:1;stroke-dasharray:none"
       id="path2995-45"
       sodipodi:cx="58.5"
       sodipodi:cy="49.5"
       sodipodi:rx="4.5"
       sodipodi:ry="4.5"
       d="m 63,49.5 a 4.5,4.5 0 1 1 -9,0 4.5,4.5 0 1 1 9,0 z"
       transform="matrix(0.49315068,0,0,0.49315068,321.15068,498.95122)" />
    <path
       sodipodi:type="arc"
       style="fill:none;stroke:#000000;stroke-width:0.1825;stroke-linecap:butt;stroke-linejoin:bevel;stroke-miterlimit:4;stroke-opacity:1;stroke-dasharray:none"
       id="path2995-5"
       sodipodi:cx="58.5"
       sodipodi:cy="49.5"
       sodipodi:rx="4.5"
       sodipodi:ry="4.5"
       d="m 63,49.5 a 4.5,4.5 0 1 1 -9,0 4.5,4.5 0 1 1 9,0 z"
       transform="matrix(0.49315068,0,0,0.49315068,330.15068,498.95122)" />
    <path
       sodipodi:type="arc"
       style="fill:none;stroke:#000000;stroke-width:0.1825;stroke-linecap:butt;stroke-linejoin:bevel;stroke-miterlimit:4;stroke-opacity:1;stroke-dasharray:none"
       id="path2995-17"
       sodipodi:cx="58.5"
       sodipodi:cy="49.5"
       sodipodi:rx="4.5"
       sodipodi:ry="4.5"
       d="m 63,49.5 a 4.5,4.5 0 1 1 -9,0 4.5,4.5 0 1 1 9,0 z"
       transform="matrix(0.49315068,0,0,0.49315068,312.15068,444.95122)" />
    <path
       sodipodi:type="arc"
       style="fill:none;stroke:#000000;stroke-width:0.1825;stroke-linecap:butt;stroke-linejoin:bevel;stroke-miterlimit:4;stroke-opacity:1;stroke-dasharray:none"
       id="path2995-11"
       sodipodi:cx="58.5"
       sodipodi:cy="49.5"
       sodipodi:rx="4.5"
       sodipodi:ry="4.5"
       d="m 63,49.5 a 4.5,4.5 0 1 1 -9,0 4.5,4.5 0 1 1 9,0 z"
       transform="matrix(0.49315068,0,0,0.49315068,321.15068,444.95122)" />
    <path
       sodipodi:type="arc"
       style="fill:none;stroke:#000000;stroke-width:0.1825;stroke-linecap:butt;stroke-linejoin:bevel;stroke-miterlimit:4;stroke-opacity:1;stroke-dasharray:none"
       id="path2995-52"
       sodipodi:cx="58.5"
       sodipodi:cy="49.5"
       sodipodi:rx="4.5"
       sodipodi:ry="4.5"
       d="m 63,49.5 a 4.5,4.5 0 1 1 -9,0 4.5,4.5 0 1 1 9,0 z"
       transform="matrix(0.49315068,0,0,0.49315068,332.15068,513.95122)" />
    <path
       sodipodi:type="arc"
       style="fill:none;stroke:#000000;stroke-width:0.1825;stroke-linecap:butt;stroke-linejoin:bevel;stroke-miterlimit:4;stroke-opacity:1;stroke-dasharray:none"
       id="path2995-76"
       sodipodi:cx="58.5"
       sodipodi:cy="49.5"
       sodipodi:rx="4.5"
       sodipodi:ry="4.5"
       d="m 63,49.5 a 4.5,4.5 0 1 1 -9,0 4.5,4.5 0 1 1 9,0 z"
       transform="matrix(0.49315068,0,0,0.49315068,323.15068,513.95122)" />
    <path
       sodipodi:type="arc"
       style="fill:none;stroke:#000000;stroke-width:0.1825;stroke-linecap:butt;stroke-linejoin:bevel;stroke-miterlimit:4;stroke-opacity:1;stroke-dasharray:none"
       id="path2995-14"
       sodipodi:cx="58.5"
       sodipodi:cy="49.5"
       sodipodi:rx="4.5"
       sodipodi:ry="4.5"
       d="m 63,49.5 a 4.5,4.5 0 1 1 -9,0 4.5,4.5 0 1 1 9,0 z"
       transform="matrix(0.49315068,0,0,0.49315068,284.15068,471.95122)" />
    <path
       style="fill:#000000;fill-opacity:1;stroke:none"
       id="path3"
       d="m 458.41779,494.88897 c -1.03431,-0.59697 -2.20706,-0.72335 -3.28045,-0.4602 l 0.005,-0.008 c 0,0 -1.40387,0.53585 -1.63752,-1.76682 0.0724,-2.89132 -1.39972,-5.74066 -4.08734,-7.28961 -2.05281,-1.18606 -4.40246,-1.37895 -6.50267,-0.73458 0,0 -0.007,0.005 -0.0183,0.009 -0.0229,0.007 -0.0474,0.0137 -0.0703,0.0179 -0.44025,0.12056 -2.39537,0.44938 -2.75372,-3.09586 l -0.005,0.009 c 0,-0.0104 0,-0.0204 0,-0.027 0,-0.0115 0,-0.0229 0,-0.0316 l 0.002,0.007 c 0.35377,-3.49246 2.25942,-3.22514 2.73501,-3.10251 2.12765,0.68677 4.52509,0.50592 6.61158,-0.69675 2.69719,-1.55561 4.16925,-4.41576 4.08736,-7.3233 0.20203,-1.90067 1.21139,-1.84163 1.53525,-1.76929 0.0228,0.007 0.0454,0.0115 0.0682,0.0183 0.0204,0.009 0.0316,0.0137 0.0316,0.0137 l -0.002,-0.005 c 1.07339,0.26565 2.24571,0.13844 3.28043,-0.4602 2.1185,-1.22014 2.84436,-3.93519 1.6213,-6.0512 -1.22512,-2.1185 -3.9356,-2.84642 -6.05369,-1.62421 -1.0343,0.59448 -1.73022,1.54938 -2.03619,2.61279 l -0.005,-0.009 c 0,0 -0.2378,1.48079 -2.34716,0.53546 -2.47227,-1.50823 -5.67289,-1.6579 -8.35802,-0.10433 -2.05282,1.18148 -3.39559,3.1208 -3.88531,5.26216 0,0 -0.002,0.009 -0.002,0.0137 -0.007,0.0296 -0.0137,0.0519 -0.0204,0.0794 -0.11764,0.44897 -0.81688,2.2931 -4.05783,0.83476 l 0.005,0.009 c -0.0179,-0.0115 -0.034,-0.0225 -0.0519,-0.027 h 0.007 c -2.85058,-2.05947 -1.65996,-3.57893 -1.31534,-3.92605 1.65789,-1.497 2.69885,-3.66539 2.69885,-6.07158 0,-3.11206 -1.73728,-5.81797 -4.29354,-7.19691 -1.58472,-1.15196 -0.96613,-2.00918 -0.75494,-2.232 0.007,-0.007 0.0137,-0.0137 0.0204,-0.0249 0.0254,-0.0204 0.0412,-0.032 0.0412,-0.032 h -0.005 c 0.76657,-0.7961 1.24299,-1.87573 1.24299,-3.07341 0,-2.44484 -1.98464,-4.42948 -4.43197,-4.42948 -2.44775,0 -4.43198,1.98464 -4.43198,4.42948 0,1.19727 0.47641,2.27731 1.243,3.07341 h -0.009 c 0,0 1.16567,0.95033 -0.71047,2.29975 -2.54461,1.38809 -4.27275,4.08485 -4.27275,7.1857 0,2.36794 1.00936,4.49974 2.61736,5.99675 0,0 0.007,0.005 0.0161,0.0158 0.0179,0.0115 0.0358,0.0316 0.0545,0.0498 0.32136,0.32177 1.58472,1.85078 -1.3066,3.9352 h 0.009 c -0.0183,0.005 -0.034,0.0158 -0.0498,0.027 l 0.002,-0.009 c -3.20229,1.44254 -3.92356,-0.34255 -4.05326,-0.81896 -0.46684,-2.18419 -1.82333,-4.16634 -3.90983,-5.37566 -2.69428,-1.55812 -5.90611,-1.39931 -8.38048,0.12014 -1.76472,0.78488 -2.20912,-0.14052 -2.30681,-0.44897 -0.002,-0.0158 -0.009,-0.0316 -0.0137,-0.0454 -0.007,-0.032 -0.009,-0.0478 -0.009,-0.0478 l -0.002,0.005 c -0.3039,-1.06383 -1.0023,-2.01831 -2.03453,-2.6128 -2.121,-1.2222 -4.83108,-0.49428 -6.05372,1.61964 -1.2247,2.12101 -0.49678,4.83565 1.62172,6.05578 1.03431,0.59864 2.20458,0.72584 3.27754,0.4602 l -0.002,0.005 c 0,0 1.40389,-0.53545 1.63544,1.76889 -0.0703,2.89423 1.40181,5.74273 4.08735,7.2917 2.05282,1.18438 4.40495,1.37686 6.50268,0.73332 0,0 0.008,-0.005 0.0208,-0.009 0.0229,-0.007 0.0449,-0.0158 0.0677,-0.0183 0.44025,-0.12014 2.39786,-0.45355 2.75579,3.09586 l 0.002,-0.009 c 0,0.009 0,0.0204 0,0.0316 0,0.007 0,0.0161 0,0.027 l -0.002,-0.009 c -0.3517,3.49745 -2.26109,3.22765 -2.73501,3.10543 -2.12515,-0.69011 -4.52302,-0.50843 -6.61159,0.69383 -2.69428,1.5581 -4.16633,4.41784 -4.08486,7.32122 -0.20411,1.92104 -1.22968,1.84412 -1.5448,1.76929 -0.0158,0 -0.0316,-0.005 -0.0474,-0.007 -0.027,-0.0115 -0.0433,-0.0154 -0.0433,-0.0154 -0.34921,-0.0861 -0.71006,-0.1297 -1.07298,-0.1297 -0.74831,0 -1.50824,0.18831 -2.20456,0.59032 -2.11851,1.22055 -2.84643,3.93312 -1.62172,6.05536 1.22262,2.1185 3.93271,2.84018 6.0537,1.61964 1.03182,-0.59698 1.73065,-1.54939 2.03453,-2.61279 l 0.005,0.007 c 0,0 0.24028,-1.47871 2.34964,-0.53503 2.47186,1.51529 5.67248,1.66454 8.35761,0.11136 2.05281,-1.18646 3.39517,-3.12745 3.88571,-5.26882 0,0 0.002,-0.002 0.005,-0.0187 0.005,-0.0229 0.0115,-0.047 0.0162,-0.0698 0.11517,-0.43609 0.8094,-2.30017 4.05991,-0.83974 l -0.005,-0.007 c 0.0158,0.0154 0.0316,0.0204 0.0474,0.0316 h -0.005 c 2.84891,2.05033 1.66495,3.5702 1.3199,3.9194 -1.65997,1.49867 -2.70342,3.6629 -2.70342,6.07158 0,3.11373 1.73979,5.82005 4.29562,7.20357 1.55396,1.12701 0.98692,1.97549 0.76492,2.21828 -0.0137,0.0153 -0.0299,0.0291 -0.0433,0.0453 -0.0115,0.0104 -0.0204,0.0179 -0.0249,0.0245 -0.76658,0.79652 -1.2405,1.87572 -1.2405,3.06925 0,2.44734 1.98214,4.42906 4.42948,4.42906 2.44733,0 4.43198,-1.98214 4.43198,-4.42906 0,-1.19519 -0.47642,-2.27273 -1.24301,-3.06925 h 0.009 c 0,0 -1.16609,-0.94991 0.71005,-2.30433 2.54503,-1.38351 4.27275,-4.08485 4.27275,-7.18736 0,-2.36585 -1.00936,-4.49974 -2.61943,-5.99466 -0.002,-0.002 -0.007,-0.007 -0.0137,-0.0137 -0.0179,-0.0137 -0.034,-0.034 -0.0519,-0.0495 -0.32426,-0.3201 -1.58764,-1.85119 1.30411,-3.93311 h -0.007 c 0.0153,-0.0115 0.0316,-0.0204 0.047,-0.0316 l -0.002,0.007 c 3.20019,-1.44047 3.92354,0.34505 4.05533,0.82105 0.46768,2.18252 1.82126,4.16923 3.90776,5.37607 2.69469,1.55811 5.90611,1.40139 8.38338,-0.12015 1.75308,-0.7803 2.20455,0.13138 2.30183,0.44399 0.007,0.0204 0.0137,0.0433 0.0187,0.0657 0.007,0.0204 0.007,0.0316 0.007,0.0316 l 0.002,-0.005 c 0.30598,1.0659 1.00189,2.01624 2.0362,2.6128 2.1185,1.22054 4.82857,0.49844 6.0537,-1.61965 1.22221,-2.12224 0.49636,-4.83481 -1.62214,-6.05536 z m -15.30593,-28.09509 c 2.1185,-1.22056 4.82898,-0.4943 6.05369,1.62379 1.22263,2.12099 0.49679,4.83106 -1.62131,6.05161 -2.12099,1.22721 -4.82898,0.49678 -6.05368,-1.61964 -1.22472,-2.12058 -0.49721,-4.83106 1.6213,-6.05576 z m -31.73098,6.05576 c -1.2247,2.11601 -3.93519,2.84643 -6.0537,1.61964 -2.12099,-1.22055 -2.84683,-3.93062 -1.62172,-6.05161 1.22222,-2.11851 3.93271,-2.84435 6.0537,-1.62379 2.1185,1.2247 2.84435,3.93518 1.62172,6.05576 z m -1.62172,23.43822 c -2.12099,1.22056 -4.83106,0.49429 -6.0537,-1.62379 -1.2247,-2.12224 -0.49886,-4.83107 1.62172,-6.05328 2.11851,-1.22512 4.82858,-0.49679 6.0537,1.61922 1.22263,2.12349 0.49678,4.83107 -1.62172,6.05785 z m 16.67531,-40.99152 c 2.44734,0 4.43197,1.98256 4.43197,4.42991 0,2.4494 -1.98463,4.43196 -4.43197,4.43196 -2.44775,0 -4.43198,-1.98256 -4.43198,-4.43196 0,-2.44735 1.98464,-4.42991 4.43198,-4.42991 z m 0,52.48905 c -2.44775,0 -4.42949,-1.98214 -4.42949,-4.43155 0,-2.44318 1.98215,-4.42741 4.42949,-4.4299 2.44734,0 4.43197,1.98672 4.43197,4.4299 0,2.44941 -1.98463,4.43155 -4.43197,4.43155 z m 0,-18.0613 c -4.51803,0 -8.18135,-3.66748 -8.18135,-8.18094 0,-4.51803 3.66332,-8.18342 8.18135,-8.18342 4.51803,0 8.18092,3.66497 8.18092,8.18342 0,4.51346 -3.66289,8.18094 -8.18092,8.18094 z m 22.73108,4.93998 c -1.22429,2.11851 -3.93312,2.84435 -6.05369,1.62379 -2.11893,-1.22678 -2.84643,-3.93477 -1.62172,-6.05785 1.22262,-2.11601 3.93311,-2.84434 6.05369,-1.61922 2.11851,1.22221 2.84435,3.93478 1.62172,6.05328 z"
       inkscape:connector-curvature="0" />
    <path
       sodipodi:type="arc"
       style="fill:none;stroke:#000000;stroke-width:0.1825;stroke-linecap:butt;stroke-linejoin:bevel;stroke-miterlimit:4;stroke-opacity:1;stroke-dasharray:none"
       id="path2995-76-1"
       sodipodi:cx="58.5"
       sodipodi:cy="49.5"
       sodipodi:rx="4.5"
       sodipodi:ry="4.5"
       d="m 63,49.5 a 4.5,4.5 0 1 1 -9,0 4.5,4.5 0 1 1 9,0 z"
       transform="matrix(0.49315068,0,0,0.49315068,302.15068,507.95122)" />
    <text
       xml:space="preserve"
       style="font-size:9.31261539px;font-style:normal;font-variant:normal;font-weight:bold;font-stretch:normal;line-height:125%;letter-spacing:0px;word-spacing:0px;fill:#000000;fill-opacity:1;stroke:none;font-family:Segoe UI;-inkscape-font-specification:Segoe UI Bold"
       x="444.76816"
       y="-286.91919"
       id="text3960"
       sodipodi:linespacing="125%"
       transform="matrix(0,1,-1,0,0,0)"><tspan
         sodipodi:role="line"
         id="tspan3962"
         x="444.76816"
         y="-286.91919">inventables.com</tspan></text>
    <text
       xml:space="preserve"
       style="font-size:8.01442719px;font-style:normal;font-variant:normal;font-weight:bold;font-stretch:normal;line-height:125%;letter-spacing:0px;word-spacing:0px;fill:#000000;fill-opacity:1;stroke:none;font-family:Segoe UI;-inkscape-font-specification:Segoe UI Bold"
       x="444.75244"
       y="-297.15683"
       id="text3982"
       sodipodi:linespacing="125%"
       transform="matrix(0,1,-1,0,0,0)"><tspan
         sodipodi:role="line"
         id="tspan3984"
         x="444.75244"
         y="-297.15683">pumpingstationone.org</tspan></text>
    <text
       sodipodi:linespacing="125%"
       id="text3026"
       y="524.35974"
       x="391.75"
       style="font-size:14px;font-style:normal;font-variant:normal;font-weight:bold;font-stretch:normal;line-height:125%;letter-spacing:0px;word-spacing:0px;fill:#000000;fill-opacity:1;stroke:none;font-family:Segoe UI;-inkscape-font-specification:Segoe UI Bold"
       xml:space="preserve"><tspan
         y="524.35974"
         x="391.75"
         id="tspan3028"
         sodipodi:role="line" /></text>
    <text
       sodipodi:linespacing="125%"
       id="text3040"
       y="617.1355"
       x="386.9642"
       style="font-size:4px;font-style:normal;font-variant:normal;font-weight:bold;font-stretch:normal;line-height:125%;letter-spacing:0px;word-spacing:0px;fill:#000000;fill-opacity:1;stroke:none;font-family:Segoe UI;-inkscape-font-specification:Segoe UI Bold"
       xml:space="preserve"><tspan
         y="617.1355"
         x="386.9642"
         id="tspan3042"
         sodipodi:role="line" /></text>
    <rect
       style="fill:none;stroke:#00ff00;stroke-width:0.09000000000000000;stroke-miterlimit:4;stroke-opacity:1;stroke-dasharray:none"
       id="rect3809"
       width="180"
       height="180"
       x="285"
       y="442.36218" />
    <path
       sodipodi:type="arc"
       style="fill:none;stroke:#000000;stroke-width:0.1825;stroke-linecap:butt;stroke-linejoin:bevel;stroke-miterlimit:4;stroke-opacity:1;stroke-dasharray:none"
       id="path2995-76-1-1"
       sodipodi:cx="58.5"
       sodipodi:cy="49.5"
       sodipodi:rx="4.5"
       sodipodi:ry="4.5"
       d="m 63,49.5 a 4.5,4.5 0 1 1 -9,0 4.5,4.5 0 1 1 9,0 z"
       transform="matrix(0.49315068,0,0,0.49315068,312.15068,498.95122)" />
    <rect
       style="fill:none;stroke:#000000;stroke-opacity:1"
       id="rect3088"
       width="31.440998"
       height="20.329321"
       x="330.06735"
       y="499.68002" />
    <text
       xml:space="preserve"
       style="font-size:22px;font-style:normal;font-variant:normal;font-weight:bold;font-stretch:normal;line-height:125%;letter-spacing:0px;word-spacing:0px;fill:#000000;fill-opacity:1;stroke:none;font-family:Segoe UI;-inkscape-font-specification:Segoe UI Bold"
       x="335.1181"
       y="517.61023"
       id="text3858"
       sodipodi:linespacing="125%"><tspan
         sodipodi:role="line"
         id="tspan3860"
         x="335.1181"
         y="517.61023">IC</tspan></text>
    <g
       id="g3237"
       transform="matrix(0.70710678,0.70710678,-0.70710678,0.70710678,501.77661,-74.492988)">
      <path
         transform="matrix(0.49315068,0,0,0.49315068,309.13283,560.95122)"
         d="M 63,49.5 C 63,51.985281 60.985281,54 58.5,54 56.014719,54 54,51.985281 54,49.5 54,47.014719 56.014719,45 58.5,45 c 2.485281,0 4.5,2.014719 4.5,4.5 z"
         sodipodi:ry="4.5"
         sodipodi:rx="4.5"
         sodipodi:cy="49.5"
         sodipodi:cx="58.5"
         id="path2995-76-2"
         style="fill:none;stroke:#000000;stroke-width:0.1825;stroke-linecap:butt;stroke-linejoin:bevel;stroke-miterlimit:4;stroke-opacity:1;stroke-dasharray:none"
         sodipodi:type="arc" />
      <path
         transform="matrix(0.97260788,0,0,0.97260788,326.10244,537.21809)"
         d="M 63,49.5 C 63,51.985281 60.985281,54 58.5,54 56.014719,54 54,51.985281 54,49.5 54,47.014719 56.014719,45 58.5,45 c 2.485281,0 4.5,2.014719 4.5,4.5 z"
         sodipodi:ry="4.5"
         sodipodi:rx="4.5"
         sodipodi:cy="49.5"
         sodipodi:cx="58.5"
         id="path2995-76-3"
         style="fill:none;stroke:#000000;stroke-width:0.09253472;stroke-linecap:butt;stroke-linejoin:bevel;stroke-miterlimit:4;stroke-opacity:1;stroke-dasharray:none"
         sodipodi:type="arc" />
      <path
         transform="matrix(0.97296736,0,0,0.96720527,236.08141,537.48552)"
         d="M 63,49.5 C 63,51.985281 60.985281,54 58.5,54 56.014719,54 54,51.985281 54,49.5 54,47.014719 56.014719,45 58.5,45 c 2.485281,0 4.5,2.014719 4.5,4.5 z"
         sodipodi:ry="4.5"
         sodipodi:rx="4.5"
         sodipodi:cy="49.5"
         sodipodi:cx="58.5"
         id="path2995-76-22"
         style="fill:none;stroke:#000000;stroke-width:0.09277566;stroke-linecap:butt;stroke-linejoin:bevel;stroke-miterlimit:4;stroke-opacity:1;stroke-dasharray:none"
         sodipodi:type="arc" />
      <path
         transform="matrix(0.49315068,0,0,0.49315068,309.13283,572.68094)"
         d="M 63,49.5 C 63,51.985281 60.985281,54 58.5,54 56.014719,54 54,51.985281 54,49.5 54,47.014719 56.014719,45 58.5,45 c 2.485281,0 4.5,2.014719 4.5,4.5 z"
         sodipodi:ry="4.5"
         sodipodi:rx="4.5"
         sodipodi:cy="49.5"
         sodipodi:cx="58.5"
         id="path2995-76-2-4"
         style="fill:none;stroke:#000000;stroke-width:0.1825;stroke-linecap:butt;stroke-linejoin:bevel;stroke-miterlimit:4;stroke-opacity:1;stroke-dasharray:none"
         sodipodi:type="arc" />
      <text
         sodipodi:linespacing="125%"
         id="text3862"
         y="583.87366"
         x="309.056"
         style="font-size:26.55494881px;font-style:normal;font-variant:normal;font-weight:bold;font-stretch:normal;line-height:125%;letter-spacing:0px;word-spacing:0px;fill:#000000;fill-opacity:1;stroke:none;font-family:Segoe UI;-inkscape-font-specification:Segoe UI Bold"
         xml:space="preserve"><tspan
           style="font-size:19.17857361px;font-weight:normal"
           y="583.87366"
           x="309.056"
           id="tspan3864"
           sodipodi:role="line">Battery</tspan><tspan
           style="font-size:19.17857361px;font-weight:normal"
           id="tspan3866"
           y="607.84686"
           x="309.056"
           sodipodi:role="line">Holder</tspan></text>
    </g>
    <rect
       style="fill:none;stroke:#000000;stroke-width:0.69;stroke-linecap:butt;stroke-linejoin:bevel;stroke-miterlimit:4;stroke-opacity:1;stroke-dasharray:none"
       id="rect3868"
       width="6.7857141"
       height="22.321428"
       x="311.07144"
       y="504.68118" />
    <text
       xml:space="preserve"
       style="font-size:72px;font-style:normal;font-variant:normal;font-weight:bold;font-stretch:normal;line-height:125%;letter-spacing:0px;word-spacing:0px;fill:#000000;fill-opacity:1;stroke:none;font-family:Segoe UI;-inkscape-font-specification:Segoe UI Bold"
       x="504.84824"
       y="-312.48178"
       id="text3870"
       sodipodi:linespacing="125%"
       transform="matrix(0,1,-1,0,0,0)"><tspan
         sodipodi:role="line"
         id="tspan3872"
         x="504.84824"
         y="-312.48178"
         style="font-size:6px;font-weight:normal">Resistor</tspan></text>
    <path
       style="fill:none;stroke:#000000;stroke-width:1px;stroke-linecap:butt;stroke-linejoin:miter;stroke-opacity:1"
       d="m 314.64286,527.71689 0,5 14.10714,0"
       id="path3876"
       inkscape:connector-curvature="0" />
    <path
       style="fill:none;stroke:#000000;stroke-width:1px;stroke-linecap:butt;stroke-linejoin:miter;stroke-opacity:1"
       d="m 314.4168,504.28886 -0.0631,-0.88388 -1.07329,-0.0631 -0.22097,-4.73509"
       id="path3884"
       inkscape:connector-curvature="0" />
    <path
       sodipodi:type="arc"
       style="fill:none;stroke:#000000;stroke-width:0.69;stroke-linecap:butt;stroke-linejoin:bevel;stroke-miterlimit:4;stroke-opacity:1;stroke-dasharray:none"
       id="path3886"
       sodipodi:cx="346.42856"
       sodipodi:cy="471.11218"
       sodipodi:rx="16.428572"
       sodipodi:ry="16.428572"
       d="m 362.85713,471.11218 a 16.428572,16.428572 0 1 1 -32.85714,0 16.428572,16.428572 0 1 1 32.85714,0 z"
       transform="translate(-1.9571068,-1.6095755)" />
    <text
       xml:space="preserve"
       style="font-size:16px;font-style:normal;font-variant:normal;font-weight:bold;font-stretch:normal;line-height:125%;letter-spacing:0px;word-spacing:0px;fill:#000000;fill-opacity:1;stroke:none;font-family:Segoe UI;-inkscape-font-specification:Segoe UI Bold"
       x="329.46429"
       y="452.18118"
       id="text3888"
       sodipodi:linespacing="125%"><tspan
         sodipodi:role="line"
         id="tspan3890"
         x="329.46429"
         y="452.18118"
         style="font-size:11px;font-weight:normal">Buzzer</tspan></text>
    <path
       sodipodi:type="arc"
       style="fill:none;stroke:#000000;stroke-width:0.69;stroke-linecap:butt;stroke-linejoin:bevel;stroke-miterlimit:4;stroke-opacity:1;stroke-dasharray:none"
       id="path3892"
       sodipodi:cx="358.38318"
       sodipodi:cy="509.62616"
       sodipodi:rx="2.8094869"
       sodipodi:ry="2.8094869"
       d="m 361.19267,509.62616 a 2.8094869,2.8094869 0 1 1 -5.61898,0 2.8094869,2.8094869 0 1 1 5.61898,0 z"
       transform="translate(0.44194174,-0.00243262)" />
    <path
       sodipodi:type="arc"
       style="fill:none;stroke:#000000;stroke-width:0.69;stroke-linecap:butt;stroke-linejoin:bevel;stroke-miterlimit:4;stroke-opacity:1;stroke-dasharray:none"
       id="path3894"
       sodipodi:cx="355.32117"
       sodipodi:cy="534.91156"
       sodipodi:rx="8.8388348"
       sodipodi:ry="8.8388348"
       d="m 364.16,534.91156 a 8.8388348,8.8388348 0 1 1 -17.67767,0 8.8388348,8.8388348 0 1 1 17.67767,0 z"
       transform="translate(0.625,5.6225674)" />
    <text
       xml:space="preserve"
       style="font-size:14px;font-style:normal;font-variant:normal;font-weight:bold;font-stretch:normal;line-height:125%;letter-spacing:0px;word-spacing:0px;fill:#000000;fill-opacity:1;stroke:none;font-family:Segoe UI;-inkscape-font-specification:Segoe UI Bold"
       x="-571.68292"
       y="372.34103"
       id="text3896"
       sodipodi:linespacing="125%"
       transform="matrix(0,-1,1,0,0,0)"><tspan
         sodipodi:role="line"
         id="tspan3898"
         x="-571.68292"
         y="372.34103"
         style="font-size:8px;font-weight:normal">Photoresistor</tspan></text>
    <g
       id="g9718"
       transform="matrix(0,-1.1643197,1.1643197,0,-253.01266,1050.5661)">
      <text
         xml:space="preserve"
         style="font-size:13.17869473px;font-style:normal;font-variant:normal;font-weight:bold;font-stretch:normal;line-height:125%;letter-spacing:0px;word-spacing:0px;fill:#000000;fill-opacity:1;stroke:none;font-family:Segoe UI;-inkscape-font-specification:Segoe UI Bold"
         x="378.64301"
         y="567.68713"
         id="text3030"
         sodipodi:linespacing="125%"><tspan
           sodipodi:role="line"
           id="tspan3032"
           x="378.64301"
           y="567.68713"
           style="font-weight:normal">Noise-o-Tron</tspan></text>
      <text
         xml:space="preserve"
         style="font-size:8.343153px;font-style:normal;font-variant:normal;font-weight:bold;font-stretch:normal;text-align:center;line-height:125%;letter-spacing:0px;word-spacing:0px;text-anchor:middle;fill:#000000;fill-opacity:1;stroke:none;font-family:Segoe UI;-inkscape-font-specification:Segoe UI Bold"
         x="416.87207"
         y="578.34564"
         id="text3034"
         sodipodi:linespacing="125%"><tspan
           sodipodi:role="line"
           id="tspan3036"
           x="418.02902"
           y="578.34564"
           style="font-size:8.343153px;font-weight:normal;text-align:center;text-anchor:middle">Microcontroller based </tspan><tspan
           sodipodi:role="line"
           x="416.87207"
           y="588.7746"
           style="font-size:8.343153px;font-weight:normal;text-align:center;text-anchor:middle"
           id="tspan3038">optical theremin</tspan></text>
      <text
         sodipodi:linespacing="125%"
         id="text3246"
         y="596.25391"
         x="369.94046"
         style="font-size:5.56210184px;font-style:normal;font-variant:normal;font-weight:bold;font-stretch:normal;line-height:125%;letter-spacing:0px;word-spacing:0px;fill:#000000;fill-opacity:1;stroke:none;font-family:Segoe UI;-inkscape-font-specification:Segoe UI Bold"
         xml:space="preserve"><tspan
           style="font-weight:normal"
           y="596.25391"
           x="369.94046"
           id="tspan3248"
           sodipodi:role="line">https://github.com/loansindi/ps1_noise</tspan></text>
    </g>
    <path
       style="fill:none;stroke:#000000;stroke-width:1px;stroke-linecap:butt;stroke-linejoin:miter;stroke-opacity:1"
       d="m 333.35034,532.6387 8.83884,0 0,6.56599 8.58629,0"
       id="path9737"
       inkscape:connector-curvature="0" />
    <path
       style="fill:none;stroke:#000000;stroke-width:1px;stroke-linecap:butt;stroke-linejoin:miter;stroke-opacity:1"
       d="m 349.76532,526.07271 -6.94116,12.02243"
       id="path9739"
       inkscape:connector-curvature="0" />
    <path
       style="fill:none;stroke:#000000;stroke-width:1px;stroke-linecap:butt;stroke-linejoin:miter;stroke-opacity:1"
       d="m 359.10923,525.56763 0,12.12183"
       id="path9741"
       inkscape:connector-curvature="0" />
    <path
       style="fill:none;stroke:#000000;stroke-width:1px;stroke-linecap:butt;stroke-linejoin:miter;stroke-opacity:1"
       d="m 314.91506,496.27321 14.39467,0"
       id="path9743"
       inkscape:connector-curvature="0" />
    <path
       style="fill:none;stroke:#000000;stroke-width:1px;stroke-linecap:butt;stroke-linejoin:miter;stroke-opacity:1"
       d="m 325.26912,579.61079 -5.55584,5.55584"
       id="path9745"
       inkscape:connector-curvature="0" />
    <path
       style="fill:none;stroke:#000000;stroke-width:1px;stroke-linecap:butt;stroke-linejoin:miter;stroke-opacity:1"
       d="m 322.4912,581.6311 -19.95051,-19.95052 8.08122,-65.15484"
       id="path9747"
       inkscape:connector-curvature="0" />
    <path
       style="fill:none;stroke:#000000;stroke-width:1px;stroke-linecap:butt;stroke-linejoin:miter;stroke-opacity:1"
       d="m 340.42141,471.52447 0,23.73858"
       id="path9749"
       inkscape:connector-curvature="0" />
    <path
       style="fill:none;stroke:#000000;stroke-width:1px;stroke-linecap:butt;stroke-linejoin:miter;stroke-opacity:1"
       d="m 349.51278,471.77701 0,22.98097"
       id="path9751"
       inkscape:connector-curvature="0" />
  </g>
</svg>
